<svg width="32" height="32" viewBox="0 0 32 32" fill="currentColor"
  xmlns="http://www.w3.org/2000/svg">
  <g>
    <path
      d="M19.28 28.53a1 1 0 0 0-1.43 0c-.95.94-2.5.94-3.44-.01L2.97 17.02a2.44 2.44 0 0 1 .01-3.43l8.4-8.37a2.42 2.42 0 0 1 3.44 0L24.87 15.3a1.1 1.1 0 0 0 1.56 0 1.1 1.1 0 0 0 0-1.55l-10.2-10.3-.03-.01a4.68 4.68 0 0 0-6.42.19l-8.4 8.36a4.67 4.67 0 0 0-.01 6.65L12.8 30.12a4.67 4.67 0 0 0 3.32 1.38h.02c1.25 0 2.42-.49 3.31-1.37a1 1 0 0 0 0-1.43z" />
    <path
      d="M23.4 21.118a6.17 6.17 0 0 0-1.6-5.8l-1.8-1.82a1.75 1.75 0 0 0-2.5 0l-.71.7a.17.17 0 0 1-.24 0l-2.02-2.02a1.11 1.11 0 1 0-1.57 1.57l2.01 2.01c.07.07.07.17 0 .24l-1.29 1.28a.17.17 0 0 1-.24 0l-2.02-2.02a1.11 1.11 0 1 0-1.57 1.57l2.02 2.02c.06.06.06.17 0 .23l-.6.59a1.75 1.75 0 0 0 0 2.49l1.8 1.8a6.13 6.13 0 0 0 5.89 1.63l3.02 3.01c.49.5 1.14.76 1.84.76s1.34-.27 1.83-.75l.78-.78a2.57 2.57 0 0 0 0-3.67zm-1.88 1.27 3.35 3.34c.07.07.1.16.1.26s-.03.2-.1.27l-.79.78a.38.38 0 0 1-.53 0l-3.33-3.33a1.48 1.48 0 0 0-1.54-.35 3.95 3.95 0 0 1-4.03-.95l-1.18-1.19a.42.42 0 0 1 0-.6l.87-.86.56-.56 2.1-2.1.45-.44 1-.99a.42.42 0 0 1 .59 0l1.18 1.2a3.9 3.9 0 0 1 .94 3.98c-.17.54-.04 1.13.36 1.53zm10.19-8.14-3.9-11.5v-.03l-.04-.07a3.64 3.64 0 0 0-2.7-2.1 3.72 3.72 0 0 0-3.27 1.03l-1.63 1.64a1.12 1.12 0 0 0-.01 1.59c.21.22.5.34.8.34h.01c.3 0 .59-.12.8-.33l1.64-1.64c.33-.34.8-.48 1.26-.4s.83.37 1.03.79l3.89 11.45v.03a2.12 2.12 0 0 1-.48 2.26l-2.68 2.67a1.12 1.12 0 0 0 0 1.6 1.13 1.13 0 0 0 1.6 0l2.68-2.66a4.37 4.37 0 0 0 1-4.67" />
  </g>
</svg>