<svg width="18" height="20" fill="none" xmlns="http://www.w3.org/2000/svg"><path fill-rule="evenodd" clip-rule="evenodd" d="M10.31 1.98a5.97 5.97 0 0 0-.64-.02H8.33a5.96 5.96 0 0 0-.75.04h-.01l-.01.02-.05.1a6.43 6.43 0 0 0-.3.87c-.23.75-.76 1.3-1.34 1.65-.57.33-1.25.5-1.95.34a46.84 46.84 0 0 0-.99-.2H2.8l-.1.11-.35.6-.6 1.02a6.83 6.83 0 0 0-.35.7v.01a5.98 5.98 0 0 0 .7.83c.5.55.7 1.27.7 1.95a2.87 2.87 0 0 1-.94 2.2 5.98 5.98 0 0 0-.46.58c0 .02 0 .05.03.11.06.13.16.3.33.6l.59 1.03a6.83 6.83 0 0 0 .45.69s.04.02.14 0a5.95 5.95 0 0 0 1-.19c.69-.16 1.37.01 1.94.34a2.95 2.95 0 0 1 1.42 1.92 6.44 6.44 0 0 0 .28.71l.01.01.1.02c.14.02.33.02.65.02h1.34a5.96 5.96 0 0 0 .75-.04h.01l.01-.02.05-.1a6.44 6.44 0 0 0 .3-.87c.23-.75.76-1.3 1.34-1.65.57-.33 1.25-.5 1.95-.34a42.44 42.44 0 0 0 .99.2l.14-.01s.02 0 .1-.1l.35-.6.6-1.02a6.82 6.82 0 0 0 .35-.7v-.01a6 6 0 0 0-.7-.83c-.5-.55-.7-1.27-.7-1.95a2.87 2.87 0 0 1 .94-2.2 6 6 0 0 0 .46-.58 6.83 6.83 0 0 0-.36-.7l-.59-1.04-.35-.59c-.08-.1-.1-.1-.1-.1s-.04-.02-.15 0a5.95 5.95 0 0 0-.98.2c-.7.15-1.38-.02-1.95-.35a2.95 2.95 0 0 1-1.43-1.92 6.4 6.4 0 0 0-.27-.71L10.42 2a.51.51 0 0 0-.1-.02Zm.16-1.45a1.5 1.5 0 0 1 1.27.95c.1.21.18.47.27.74v.04l.1.27c.1.33.34.62.7.83.33.2.67.26.98.2l.36-.09h.03c.28-.07.54-.12.77-.14A1.51 1.51 0 0 1 16.4 4c.14.19.28.43.43.7l.62 1.08c.15.26.3.5.39.73.1.25.18.53.15.86-.03.33-.16.58-.31.8-.14.2-.32.4-.5.6l-.03.03-.24.27c-.2.22-.32.55-.32.93s.12.71.32.93l.24.27.02.02c.2.21.37.41.5.6a1.6 1.6 0 0 1 .17 1.67c-.1.22-.24.47-.39.73l-.62 1.09c-.15.25-.29.5-.43.7-.16.21-.36.41-.64.54-.28.13-.55.15-.81.12-.23-.02-.5-.08-.77-.14h-.04l-.35-.08c-.3-.07-.65 0-.98.2-.36.2-.6.5-.7.82l-.1.27v.04c-.09.27-.17.53-.27.74-.1.24-.26.47-.5.66-.25.19-.51.26-.77.3-.22.02-.49.02-.77.02H8.3c-.28 0-.55 0-.77-.03a1.5 1.5 0 0 1-1.27-.95c-.1-.21-.18-.47-.27-.74v-.04l-.1-.27c-.1-.33-.35-.62-.7-.83-.33-.2-.67-.26-.98-.2l-.36.09h-.03c-.28.07-.54.12-.77.14-.26.03-.53 0-.8-.12A1.64 1.64 0 0 1 1.6 16a6.72 6.72 0 0 1-.43-.7l-.62-1.08c-.15-.26-.3-.5-.39-.73a1.7 1.7 0 0 1-.15-.86c.03-.33.16-.58.31-.8.14-.2.32-.4.5-.6l.03-.03.24-.27c.2-.22.32-.55.32-.93s-.12-.71-.32-.93L.85 8.8l-.02-.02a6.7 6.7 0 0 1-.5-.6A1.66 1.66 0 0 1 0 7.36a1.7 1.7 0 0 1 .15-.86c.1-.23.24-.47.39-.73l.01-.03.6-1.03.01-.03c.15-.26.29-.5.43-.7.16-.21.36-.41.64-.54.28-.13.55-.15.81-.12.23.02.5.07.77.13l.03.01h.03l.02.01h-.05l.36.07c.3.07.65 0 .98-.2.36-.2.6-.5.7-.82a49 49 0 0 1 .1-.27v-.04c.09-.27.17-.53.27-.74.1-.24.26-.47.5-.66.25-.19.51-.26.77-.3L8.3.5h1.4c.28 0 .55 0 .77.03Z" fill="#1F2937"/><path fill-rule="evenodd" clip-rule="evenodd" d="M9 7.92a2.08 2.08 0 1 0 0 4.16 2.08 2.08 0 0 0 0-4.16ZM5.54 10a3.46 3.46 0 1 1 6.92 0 3.46 3.46 0 0 1-6.92 0Z" fill="#1F2937"/></svg>