<svg width="20" height="20" viewBox="0 0 20 20" fill="none" xmlns="http://www.w3.org/2000/svg"><path d="M11 13.375a1 1 0 1 1-2 0 1 1 0 0 1 2 0Z" fill="currentColor"/><path fill-rule="evenodd" clip-rule="evenodd" d="M10 2.385a7.615 7.615 0 1 0 0 15.23 7.615 7.615 0 0 0 0-15.23ZM1 10a9 9 0 1 1 18 0 9 9 0 0 1-18 0Z" fill="currentColor"/><path fill-rule="evenodd" clip-rule="evenodd" d="m10.403 8.505-.074.044c-.328.2-.594.422-.78.692a1.734 1.734 0 0 0-.297 1.014v.135c0 .183.044.385.174.548a.721.721 0 0 0 .581.262c.231 0 .44-.082.579-.265.127-.167.162-.375.162-.56 0-.214.037-.338.112-.446.084-.12.239-.25.544-.425l.003-.002c.705-.412 1.197-1.024 1.197-1.924 0-1.259-1.073-2.078-2.427-2.078-1.037 0-1.91.439-2.27 1.272a1.53 1.53 0 0 0-.157.69c0 .182.051.37.191.511.141.143.329.197.515.197a.674.674 0 0 0 .47-.163c.11-.1.176-.23.222-.365.01-.028.018-.056.026-.084a.896.896 0 0 1 .33-.504c.15-.109.394-.192.673-.192.3 0 .495.1.647.232a.67.67 0 0 1 .229.528.74.74 0 0 1-.128.453c-.092.131-.25.268-.522.43Z" fill="currentColor"/></svg>