<svg width="49" height="48" viewBox="0 0 49 48" fill="none" xmlns="http://www.w3.org/2000/svg">
<path d="M23.5663 19.6811C23.8827 19.4049 24.2966 19.2376 24.7496 19.2376C25.2747 19.2376 25.7473 19.4624 26.0763 19.8211L30.7701 24.7695C31.4542 25.4907 31.4241 26.63 30.7029 27.3142C29.9816 27.9983 28.8423 27.9682 28.1582 27.247L26.5495 25.551L26.5494 33.208C26.5494 34.2021 25.7435 35.008 24.7494 35.008C23.7553 35.0079 22.9494 34.202 22.9494 33.2079L22.9495 25.4369L21.1477 27.2701C20.4509 27.9791 19.3112 27.989 18.6023 27.2921C17.8933 26.5953 17.8834 25.4556 18.5802 24.7466L23.4656 19.776C23.4896 19.7516 23.5142 19.728 23.5393 19.7052C23.5482 19.6971 23.5572 19.6891 23.5663 19.6811Z" fill="#4B5563"/>
<path fill-rule="evenodd" clip-rule="evenodd" d="M24.2919 4.7998C19.9614 4.7998 15.7448 5.92734 12.8498 9.28784C11.5303 10.8196 10.612 12.6757 10.0626 14.8091C10.0283 14.9422 9.99981 15.0529 9.97411 15.1496C9.86974 15.1787 9.74964 15.2112 9.60396 15.2505C7.83057 15.729 6.2369 16.5554 4.88982 17.7255C1.98777 20.2462 0.664062 23.9679 0.664062 27.9752C0.664062 33.125 2.21345 37.1354 5.26118 39.7882C8.22016 42.3637 12.0722 43.1997 15.7711 43.1997C15.895 43.1997 16.0187 43.1982 16.142 43.1952C16.1842 43.1982 16.2267 43.1998 16.2695 43.1998H36.4946L36.5195 43.1998L37.0119 43.1998C37.0852 43.1998 37.1575 43.1953 37.2286 43.1865C39.8968 43.0851 42.7069 42.3815 44.9345 40.4437C47.4463 38.2586 48.6641 34.9961 48.6641 30.9686C48.6641 27.8931 47.7452 24.7231 45.4928 22.4481C44.3464 21.2902 42.9398 20.455 41.3301 19.9945C41.0439 19.9127 40.8229 19.8491 40.6473 19.7958C40.6426 19.6414 40.6388 19.4513 40.6345 19.2111C40.5703 15.676 39.4043 12.417 37.118 9.86324C34.1312 6.52703 29.6083 4.7998 24.2919 4.7998ZM16.1444 43.0996L16.1468 43.1951L16.142 43.1952L16.1373 43.1949L16.1444 43.0996ZM37.2209 43.0912L37.2245 43.1867L37.2286 43.1865L37.2328 43.186L37.2209 43.0912ZM9.97411 15.1496L10.0263 15.1349L10.0524 15.2268L9.96009 15.2019L9.97411 15.1496ZM15.5213 11.6166C17.4826 9.33999 20.5035 8.35578 24.2919 8.35578C28.8642 8.35578 32.3298 9.82858 34.4912 12.2429C36.1485 14.0941 37.0497 16.5039 37.1001 19.2761L37.1012 19.3416C37.1092 19.7843 37.1172 20.2241 37.1547 20.5835C37.1909 20.9308 37.279 21.5427 37.6923 22.0835C38.1187 22.6413 38.7199 22.8849 39.0379 23.0044C39.3894 23.1364 39.836 23.2641 40.3013 23.3972L40.3633 23.4149C41.3978 23.7108 42.2731 24.2353 42.9881 24.9575C44.4027 26.3862 45.1291 28.5452 45.1291 30.9686C45.1291 34.2724 44.1521 36.4231 42.6222 37.754C41.1817 39.007 39.209 39.5719 36.9676 39.6374C36.9314 39.6384 36.8955 39.6406 36.8598 39.6438H36.5542L36.523 39.6438H36.5199L36.4946 39.6438H16.4398C16.36 39.6357 16.2788 39.633 16.1967 39.636C16.0555 39.6412 15.9136 39.6437 15.7711 39.6437C12.5341 39.6437 9.64833 38.9044 7.57424 37.0991C5.50774 35.3004 4.19906 32.4012 4.19906 27.9752C4.19906 24.7342 5.2565 22.1052 7.20017 20.4169C8.11735 19.6202 9.22582 19.0342 10.5198 18.6851L10.5716 18.6711C10.8831 18.5871 11.2084 18.4994 11.4767 18.4036C11.7547 18.3044 12.1949 18.1239 12.5727 17.7402C12.9454 17.3618 13.1208 16.9271 13.2184 16.6445C13.3105 16.3776 13.3932 16.0562 13.4713 15.753L13.4847 15.7008C13.9173 14.0209 14.6073 12.6776 15.5213 11.6166Z" fill="#4B5563"/>
</svg>
