<svg width="20" height="20" viewBox="0 0 20 20" fill="none" xmlns="http://www.w3.org/2000/svg">
  <path
    d="M3.28906 16.7102C3.42119 16.1288 3.42119 15.5253 3.28906 14.944C3.28906 14.3788 4.46183 14.4777 4.70204 14.2375C4.94224 13.9973 4.81507 13.1777 5.40852 13.1777C6.00197 13.1777 6.31989 15.0499 7.17474 15.6504C8.41109 16.5123 8.29805 18.1231 7.52798 18.1231C6.75791 18.1231 5.82535 17.4802 5.40852 17.4167C4.99169 17.3531 3.28906 17.3531 3.28906 16.7102Z"
    stroke="#4B5563" stroke-width="1.25" stroke-linecap="round" stroke-linejoin="round" />
  <path
    d="M13.1779 13.5312C12.6269 13.5312 12.4714 16.9083 12.4714 17.0637C12.4714 17.2191 12.2736 18.1234 13.1779 18.1234C14.0822 18.1234 14.4284 17.5794 14.9441 17.0637C15.4599 16.5479 16.7104 16.4914 16.7104 16.004C16.7104 15.5165 16.0039 15.2975 15.6506 14.9442C15.2974 14.591 15.8485 13.5312 15.2974 13.5312"
    stroke="#4B5563" stroke-width="1.25" stroke-linecap="round" stroke-linejoin="round" />
  <path
    d="M11.4153 6.46716C12.6307 8.61963 13.241 11.0608 13.1815 13.532C13.1815 13.532 13.125 14.5918 13.888 14.5918C14.651 14.5918 15.301 14.7119 15.301 12.8255C15.301 9.20833 12.475 8.08501 12.475 6.46716C12.475 5.37917 12.6234 1.875 10.0023 1.875C8.79423 1.875 7.88286 2.32009 7.88286 5.76067C7.88286 7.26549 6.99975 8.34641 6.46989 9.64635C5.96127 10.7715 5.60489 11.9595 5.41016 13.1788"
    stroke="#4B5563" stroke-width="1.25" stroke-linecap="round" stroke-linejoin="round" />
  <path
    d="M9.64903 5.4082C8.94254 5.4082 7.88281 6.0723 7.88281 6.46793C7.88281 6.86357 8.98493 7.52766 9.29579 7.52766C9.60664 7.52766 11.4152 6.70107 11.4152 6.46793C11.4152 5.76145 9.64903 5.4082 9.64903 5.4082Z"
    stroke="#4B5563" stroke-width="1.25" stroke-linecap="round" stroke-linejoin="round" />
  <path
    d="M10.7048 5.40815C10.8999 5.40815 11.058 5.09817 11.058 4.71579C11.058 4.33342 10.8999 4.02344 10.7048 4.02344C10.5097 4.02344 10.3516 4.33342 10.3516 4.71579C10.3516 5.09817 10.5097 5.40815 10.7048 5.40815Z"
    stroke="#4B5563" stroke-width="1.25" stroke-linecap="round" stroke-linejoin="round" />
  <path
    d="M8.58762 5.40815C8.78271 5.40815 8.94086 5.09817 8.94086 4.71579C8.94086 4.33342 8.78271 4.02344 8.58762 4.02344C8.39253 4.02344 8.23438 4.33342 8.23438 4.71579C8.23438 5.09817 8.39253 5.40815 8.58762 5.40815Z"
    stroke="#4B5563" stroke-width="1.25" stroke-linecap="round" stroke-linejoin="round" />
  <path d="M7.95312 16.5911C8.65961 16.7253 11.3443 17.0009 12.5806 15.5879" stroke="#4B5563"
    stroke-width="1.25" stroke-linecap="round" stroke-linejoin="round" />
  <path d="M7.88281 17.9478C8.16541 17.6228 9.41589 17.418 10.0023 17.418H12.3973" stroke="#4B5563"
    stroke-width="1.25" stroke-linecap="round" stroke-linejoin="round" />
</svg>