<svg width="18" height="18" fill="none" xmlns="http://www.w3.org/2000/svg"><path d="M9.687 0H7.112C5.648 0 4.473 0 3.55.124c-.957.129-1.756.403-2.39 1.037C.528 1.794.254 2.593.125 3.55 0 4.473 0 5.648 0 7.112v3.776c0 1.464 0 2.639.124 3.562.129.957.403 1.756 1.037 2.39.633.633 1.432.907 2.389 1.036C4.473 18 5.648 18 7.112 18h2.575a3.962 3.962 0 0 0 3.962-3.962.756.756 0 1 0-1.513 0 2.45 2.45 0 0 1-2.449 2.45H7.168c-1.533 0-2.606-.003-3.417-.111-.789-.107-1.215-.302-1.52-.607-.306-.306-.501-.732-.608-1.521-.109-.811-.11-1.884-.11-3.417V7.168c0-1.533.001-2.606.11-3.417.107-.789.302-1.215.607-1.52.306-.306.732-.501 1.521-.608.811-.109 1.884-.11 3.417-.11h2.52a2.45 2.45 0 0 1 2.448 2.45.756.756 0 0 0 1.513 0A3.962 3.962 0 0 0 9.687 0Z" fill="#B81C1C"/><path d="M15.492 6.163a.756.756 0 1 0-1.077 1.062l1.02 1.035h-6.68a.756.756 0 0 0 0 1.513h6.644l-.976.962a.756.756 0 1 0 1.062 1.077l2.29-2.257a.756.756 0 0 0 .007-1.07l-2.29-2.322Z" fill="#B81C1C"/></svg>