<svg xmlns="http://www.w3.org/2000/svg" width="32" height="32" fill="none">
  <path
    fill-rule="evenodd" clip-rule="evenodd"
    d="M29 19c0 .917-.182 1.755-.547 2.516-.364.76-.849 1.359-1.453 1.797.063 1.729-.604 3.28-2 4.656-1.25 1.25-2.677 1.916-4.281 2-.334.583-.933 1.067-1.797 1.453-.865.385-1.839.578-2.922.578-1.083 0-2.057-.193-2.922-.578-.864-.386-1.463-.87-1.797-1.453-1.604-.084-3.031-.75-4.281-2-1.396-1.375-2.063-2.927-2-4.657-.604-.437-1.089-1.036-1.453-1.796C3.182 20.756 3 19.916 3 19c0-.938.198-1.802.594-2.594.396-.791.916-1.396 1.562-1.812-.229-.771-.208-1.604.063-2.5.27-.896.76-1.698 1.468-2.406a6.352 6.352 0 0 1 2.157-1.376c-1-.52-1.85-1.286-2.547-2.296C5.599 5.006 5.167 3.948 5 2.844A6.24 6.24 0 0 1 7.328.766 6.7 6.7 0 0 1 10.5 0a6.7 6.7 0 0 1 3.172.766A6.24 6.24 0 0 1 16 2.844 6.24 6.24 0 0 1 18.328.766 6.7 6.7 0 0 1 21.5 0a6.7 6.7 0 0 1 3.172.766A6.24 6.24 0 0 1 27 2.844c-.167 1.104-.599 2.161-1.297 3.172-.698 1.01-1.557 1.776-2.578 2.296.833.313 1.563.771 2.188 1.376.708.708 1.197 1.51 1.468 2.406.271.896.292 1.729.063 2.5.646.416 1.166 1.02 1.562 1.812.396.792.594 1.657.594 2.594Zm-8.188 8.875a5.42 5.42 0 0 0 2.688-1.406c.646-.604 1.078-1.167 1.297-1.688.219-.52.265-.979.14-1.375s-.395-.791-.812-1.187a6.063 6.063 0 0 0-1.031-.719l-.032.031-.062.032c-.27.145-.604.26-1 .343V22c0 1.667-.594 3.083-1.781 4.25.27.646.468 1.188.593 1.625Zm1.563-11.813c-.48-.791-1.172-1.38-2.078-1.765-.906-.386-1.677-.412-2.313-.078-.635.333-.963 1.005-.984 2.015-.02 1.01.26 1.766.844 2.266.854.75 1.682 1.224 2.484 1.422.802.198 1.401.099 1.797-.297.542-.5.833-1.02.875-1.563.042-.541-.167-1.208-.625-2ZM16 30c.833 0 1.542-.193 2.125-.578.583-.386.875-.86.875-1.422 0-.23-.073-.469-.219-.719-.896.48-1.823.719-2.781.719-.958 0-1.885-.24-2.781-.719-.146.25-.219.49-.219.719 0 .563.292 1.037.875 1.422S15.167 30 16 30Zm0-4c1.063 0 1.995-.323 2.797-.969C19.599 24.385 20 23.708 20 23c0-.333-.063-.73-.188-1.188-1.604-.416-2.875-1.343-3.812-2.78-.938 1.437-2.208 2.364-3.813 2.78A4.364 4.364 0 0 0 12 23c0 .708.401 1.385 1.203 2.031.802.646 1.735.969 2.797.969Zm-1.984-11.781c-.636-.334-1.407-.307-2.313.078-.906.385-1.599.974-2.078 1.765-.458.792-.667 1.459-.625 2 .042.542.333 1.063.875 1.563.396.396.995.495 1.797.297.802-.198 1.63-.672 2.484-1.422.584-.5.865-1.255.844-2.266-.02-1.01-.349-1.682-.984-2.015ZM8.5 26.469a5.42 5.42 0 0 0 2.688 1.406c.124-.438.322-.98.593-1.625C10.594 25.083 10 23.667 10 22v-.094a4.333 4.333 0 0 1-1-.343c-.02 0-.042-.01-.063-.032l-.03-.031a6.063 6.063 0 0 0-1.032.719c-.417.396-.688.791-.813 1.187s-.078.854.141 1.375c.219.521.651 1.084 1.297 1.688ZM5 19c0 .854.188 1.625.563 2.313a3.78 3.78 0 0 1 .406-.5c.375-.375.885-.615 1.531-.72-.667-1.228-.688-2.583-.063-4.062A5.16 5.16 0 0 0 7 16c-.604 0-1.089.24-1.453.719C5.182 17.198 5 17.959 5 19Zm3.313-7.688C7.52 12.104 7.082 13 7 14c.5 0 .99.125 1.469.375.916-1.125 2.031-1.854 3.344-2.188-.521-.645-.792-1.364-.813-2.156-1 .084-1.896.51-2.688 1.281ZM10.687 2c-.666 0-1.385.104-2.156.313C7.761 2.52 7.25 2.75 7 3c.167.938.667 1.839 1.5 2.703C9.333 6.568 10.26 7 11.281 7c.396 0 .781-.042 1.156-.125a7.646 7.646 0 0 0-.609-.953c-.24-.323-.51-.64-.812-.953-.303-.313-.547-.568-.735-.766a13.474 13.474 0 0 0-.75-.719C9.22 3.204 9.041 3.042 9 3a8.808 8.808 0 0 1 3.031 1c.959.52 1.76 1.167 2.406 1.938.25-.209.438-.396.563-.563v-.031c0-.938-.422-1.73-1.266-2.375C12.891 2.323 11.875 2 10.688 2ZM16 8c-.833 0-1.542.292-2.125.875A2.893 2.893 0 0 0 13 11c0 .333.063.667.188 1 .666 0 1.27.146 1.812.438.354.166.688.427 1 .78.313-.353.646-.614 1-.78A3.76 3.76 0 0 1 18.813 12 3.01 3.01 0 0 0 19 11c0-.833-.292-1.542-.875-2.125A2.893 2.893 0 0 0 16 8Zm9-5c-.25-.25-.76-.48-1.531-.688-.771-.208-1.48-.312-2.125-.312-1.209 0-2.235.323-3.078.969C17.422 3.615 17 4.406 17 5.344v.031c.125.167.313.354.563.563.645-.771 1.447-1.417 2.406-1.938A8.808 8.808 0 0 1 23 3c-.042.042-.219.203-.531.484-.313.282-.563.521-.75.72l-.735.765c-.302.312-.573.63-.812.953-.24.323-.443.64-.61.953.375.083.76.125 1.157.125 1.02 0 1.948-.432 2.781-1.297C24.333 4.84 24.833 3.937 25 3Zm-1.313 8.313C22.896 10.541 22 10.114 21 10.03c0 .792-.27 1.51-.813 2.156 1.313.334 2.428 1.063 3.344 2.188.48-.25.969-.375 1.469-.375-.083-1-.52-1.896-1.313-2.688ZM25 16c-.083 0-.23.01-.438.031.625 1.48.605 2.834-.062 4.063.646.104 1.156.343 1.531.718.125.105.26.271.407.5.375-.687.562-1.458.562-2.312 0-2-.667-3-2-3Z"
    fill="#4B5563" />
</svg>