<svg width="32" height="32" viewBox="0 0 32 32" fill="none" xmlns="http://www.w3.org/2000/svg"><g clip-path="url(#a)"><path d="M1.6 28.8v-4c0-1.3 1-2.4 2.4-2.4h.8A3.2 3.2 0 0 0 8 18.7 3.3 3.3 0 0 0 4.6 16H4c-1.3 0-2.4-1-2.4-2.4v-4A1.6 1.6 0 0 1 3.2 8h4c1.3 0 2.4-1 2.4-2.4v-.8a3.2 3.2 0 0 1 3.7-3.2A3.3 3.3 0 0 1 16 5v.6C16 6.9 17 8 18.4 8h4A1.6 1.6 0 0 1 24 9.6v4c0 1.3 1 2.4 2.4 2.4h.6a3.3 3.3 0 0 1 3.4 2.7 3.2 3.2 0 0 1-3.2 3.7h-.8c-1.3 0-2.4 1-2.4 2.4v4a1.6 1.6 0 0 1-1.6 1.6H20c-1.3 0-2.4-1-2.4-2.4v-.8a3.2 3.2 0 0 0-3.7-3.2 3.3 3.3 0 0 0-2.7 3.4v.6c0 1.3-1 2.4-2.4 2.4H3.2a1.6 1.6 0 0 1-1.6-1.6Z" stroke="#4B5563" stroke-width="2.5" stroke-linejoin="round"/></g><defs><clipPath id="a"><path fill="#fff" d="M0 0h32v32H0z"/></clipPath></defs></svg>
