<svg width="40" height="40" viewBox="0 0 40 40" fill="none" xmlns="http://www.w3.org/2000/svg">
<path fill-rule="evenodd" clip-rule="evenodd" d="M19.9048 3.33325H20.0945C22.4583 3.33322 24.3635 3.33319 25.862 3.53244C27.4177 3.7393 28.7276 4.18186 29.768 5.21077C30.8083 6.23969 31.2558 7.5352 31.4649 9.07385C31.6664 10.5558 31.6664 12.4402 31.6663 14.7779V25.2219C31.6664 27.5597 31.6664 29.444 31.4649 30.926C31.2558 32.4646 30.8083 33.7601 29.768 34.7891C28.7276 35.818 27.4177 36.2605 25.862 36.4674C24.3635 36.6667 22.4582 36.6666 20.0945 36.6666H19.9048C17.5411 36.6666 15.6359 36.6667 14.1374 36.4674C12.5816 36.2605 11.2717 35.818 10.2314 34.7891C9.19104 33.7601 8.74357 32.4646 8.53441 30.926C8.33294 29.444 8.33297 27.5597 8.33301 25.2219V14.7779C8.33297 12.4402 8.33294 10.5558 8.53441 9.07385C8.74357 7.5352 9.19104 6.23969 10.2314 5.21077C11.2717 4.18186 12.5816 3.7393 14.1374 3.53244C15.6359 3.33319 17.5411 3.33322 19.9048 3.33325ZM14.4828 6.07368C13.2146 6.24231 12.543 6.55077 12.0646 7.02387C11.5863 7.49697 11.2744 8.16119 11.1039 9.41551C10.9284 10.7067 10.9256 12.418 10.9256 14.8717L10.9256 25.1281C10.9256 27.5818 10.9284 29.2931 11.1039 30.5843C11.2744 31.8386 11.5863 32.5029 12.0646 32.976C12.543 33.4491 13.2146 33.7575 14.4828 33.9262C15.7884 34.0998 17.5187 34.1025 19.9997 34.1025C22.4806 34.1025 24.211 34.0998 25.5165 33.9262C26.7848 33.7575 27.4564 33.4491 27.9347 32.976C28.4131 32.5029 28.725 31.8386 28.8955 30.5843C29.071 29.2931 29.0738 27.5818 29.0738 25.1281V14.8717C29.0738 12.418 29.071 10.7067 28.8955 9.41551C28.725 8.16119 28.4131 7.49697 27.9347 7.02387C27.4564 6.55077 26.7848 6.24231 25.5165 6.07368C24.211 5.90008 22.4806 5.89736 19.9997 5.89736C17.5187 5.89736 15.7884 5.90008 14.4828 6.07368Z" fill="#4B5563"/>
<path fill-rule="evenodd" clip-rule="evenodd" d="M15.2466 30.2241C15.2466 29.5338 15.827 28.9741 16.5429 28.9741H23.4565C24.1724 28.9741 24.7528 29.5338 24.7528 30.2241C24.7528 30.9145 24.1724 31.4741 23.4565 31.4741H16.5429C15.827 31.4741 15.2466 30.9145 15.2466 30.2241Z" fill="#4B5563"/>
</svg>
