<svg width="32" height="32" viewBox="0 0 32 32" fill="none" xmlns="http://www.w3.org/2000/svg">
  <path
    d="M6.4 19.6C5.73726 19.6 5.2 20.1373 5.2 20.8C5.2 21.4627 5.73726 22 6.4 22H9.6C10.2627 22 10.8 21.4627 10.8 20.8C10.8 20.1373 10.2627 19.6 9.6 19.6H6.4Z"
    fill="#4B5563" />
  <path
    d="M13.2 20.8C13.2 20.1373 13.7373 19.6 14.4 19.6H20.8C21.4627 19.6 22 20.1373 22 20.8C22 21.4627 21.4627 22 20.8 22H14.4C13.7373 22 13.2 21.4627 13.2 20.8Z"
    fill="#4B5563" />
  <path fill-rule="evenodd" clip-rule="evenodd"
    d="M0 16C0 10.7532 0 8.12985 1.30211 6.27025C1.78385 5.58225 2.38225 4.98384 3.07025 4.5021C4.92985 3.2 7.55323 3.2 12.8 3.2H19.2C24.4468 3.2 27.0702 3.2 28.9298 4.5021C29.6178 4.98384 30.2162 5.58225 30.6979 6.27025C32 8.12985 32 10.7532 32 16C32 21.2468 32 23.8701 30.6979 25.7297C30.2162 26.4177 29.6178 27.0161 28.9298 27.4979C27.0702 28.8 24.4468 28.8 19.2 28.8H12.8C7.55323 28.8 4.92985 28.8 3.07025 27.4979C2.38225 27.0161 1.78385 26.4177 1.30211 25.7297C0 23.8701 0 21.2468 0 16ZM12.8 5.6H19.2C21.8753 5.6 23.6944 5.60311 25.0835 5.74954C26.4299 5.89146 27.0933 6.14608 27.5532 6.46807C28.0118 6.78923 28.4108 7.18816 28.7319 7.64683C29.0539 8.10668 29.3085 8.77011 29.4505 10.1165C29.4602 10.2091 29.4693 10.3035 29.4779 10.4H2.52214C2.53067 10.3035 2.53979 10.2091 2.54954 10.1165C2.69146 8.77011 2.94608 8.10668 3.26807 7.64683C3.58923 7.18816 3.98817 6.78923 4.44683 6.46807C4.90668 6.14608 5.57012 5.89146 6.91652 5.74954C8.30565 5.60311 10.1247 5.6 12.8 5.6ZM2.40618 13.6C2.40034 14.3158 2.4 15.1106 2.4 16C2.4 18.6753 2.40312 20.4943 2.54954 21.8835C2.69146 23.2299 2.94608 23.8933 3.26807 24.3532C3.58923 24.8118 3.98817 25.2108 4.44683 25.5319C4.90668 25.8539 5.57012 26.1085 6.91652 26.2505C8.30565 26.3969 10.1247 26.4 12.8 26.4H19.2C21.8753 26.4 23.6944 26.3969 25.0835 26.2505C26.4299 26.1085 27.0933 25.8539 27.5532 25.5319C28.0118 25.2108 28.4108 24.8118 28.7319 24.3532C29.0539 23.8933 29.3085 23.2299 29.4505 21.8835C29.5969 20.4943 29.6 18.6753 29.6 16C29.6 15.1106 29.5997 14.3158 29.5938 13.6H2.40618Z"
    fill="#4B5563" />
</svg>
