<svg width="32" height="32" viewBox="0 0 32 32" fill="none" xmlns="http://www.w3.org/2000/svg">
<path d="M13.8256 3.88317C12.5464 2.60882 10.4689 2.62246 9.19428 3.90133L0.94755 12.1769C-0.327272 13.456 -0.311052 15.497 0.967816 16.7715L14.4891 30.2927C15.7683 31.5669 17.8416 31.5563 19.1163 30.2775L23.1353 26.2585C21.9631 27.4306 20.9986 26.5878 19.8556 25.4496L17.6139 23.208C15.9121 23.8816 13.9232 23.5469 12.5444 22.1708L10.8361 20.4625C10.7787 20.4056 10.7343 20.3461 10.7032 20.2714C10.672 20.1967 10.6559 20.1166 10.6558 20.0357C10.6558 19.9547 10.6717 19.8746 10.7027 19.7999C10.7338 19.7251 10.7824 19.6618 10.8398 19.6048L11.8065 18.6381L9.70209 16.5337C9.37268 16.2049 9.31888 15.6741 9.61347 15.3155C9.95019 14.9037 10.5607 14.8819 10.9301 15.2505L13.063 17.3816L14.5076 15.937L12.3982 13.8328C12.0687 13.5039 12.015 12.9732 12.3121 12.6121C12.3909 12.5161 12.4889 12.4378 12.5998 12.382C12.7107 12.3261 12.832 12.2942 12.956 12.288C13.08 12.2819 13.2039 12.3018 13.3198 12.3464C13.4356 12.391 13.5409 12.4594 13.6288 12.547L15.7703 14.6743L16.6778 13.7667C16.7348 13.7093 16.7909 13.6576 16.8656 13.6265C16.9403 13.5953 17.0204 13.5792 17.1013 13.5791C17.1822 13.5791 17.2624 13.595 17.3371 13.626C17.4119 13.657 17.4798 13.7024 17.5369 13.7598L19.2478 15.4674C20.6094 16.8263 20.9653 18.804 20.3289 20.4931L22.571 22.7352C23.714 23.8733 24.6704 24.7234 25.8426 23.5512L30.914 18.4797C29.695 19.6987 28.6936 18.7596 27.4888 17.5559L13.8256 3.88317Z" fill="url(#paint0_linear_94_8090)"/>
<path d="M23.4133 1.62841L19.1024 5.93591L28.6809 15.5144C29.5977 16.4274 30.3945 17.1549 31.2789 16.8022C31.79 16.5983 32.1408 16.0439 31.9449 15.5297C27.3615 3.50316 27.3597 3.50297 26.7517 2.18837C26.1437 0.873768 24.4337 0.595019 23.4133 1.62841Z" fill="#897FFF"/>
<path d="M23.4133 1.62841L19.1024 5.93591L28.6809 15.5144C29.5977 16.4274 30.3945 17.1549 31.2789 16.8022C31.79 16.5983 32.1408 16.0439 31.9449 15.5297C27.3615 3.50316 27.3597 3.50297 26.7517 2.18837C26.1437 0.873768 24.4337 0.595019 23.4133 1.62841Z" fill="#897FFF"/>
<path d="M23.4133 1.62841L19.1024 5.93591L28.6809 15.5144C29.5977 16.4274 30.3945 17.1549 31.2789 16.8022C31.79 16.5983 32.1408 16.0439 31.9449 15.5297C27.3615 3.50316 27.3597 3.50297 26.7517 2.18837C26.1437 0.873768 24.4337 0.595019 23.4133 1.62841Z" fill="#897FFF"/>
<path d="M23.4133 1.62841L19.1024 5.93591L28.6809 15.5144C29.5977 16.4274 30.3945 17.1549 31.2789 16.8022C31.79 16.5983 32.1408 16.0439 31.9449 15.5297C27.3615 3.50316 27.3597 3.50297 26.7517 2.18837C26.1437 0.873768 24.4337 0.595019 23.4133 1.62841Z" fill="#897FFF"/>
<path d="M23.4133 1.62841L19.1024 5.93591L28.6809 15.5144C29.5977 16.4274 30.3945 17.1549 31.2789 16.8022C31.79 16.5983 32.1408 16.0439 31.9449 15.5297C27.3615 3.50316 27.3597 3.50297 26.7517 2.18837C26.1437 0.873768 24.4337 0.595019 23.4133 1.62841Z" fill="#897FFF"/>
<defs>
<linearGradient id="paint0_linear_94_8090" x1="15.457" y1="1.30498" x2="15.457" y2="31.2425" gradientUnits="userSpaceOnUse">
<stop stop-color="#FFCA4A"/>
<stop offset="1" stop-color="#F7931A"/>
</linearGradient>
</defs>
</svg>
