<svg width="32" height="33" viewBox="0 0 32 33" fill="none" xmlns="http://www.w3.org/2000/svg">
  <path fill-rule="evenodd" clip-rule="evenodd"
    d="M15.7519 3.82422C12.8649 3.82422 10.0538 4.57591 8.12386 6.81624C7.24414 7.83744 6.63195 9.0748 6.2657 10.4971C6.24286 10.5858 6.22383 10.6596 6.2067 10.7241C6.13712 10.7435 6.05705 10.7651 5.95993 10.7913C4.77767 11.1103 3.71522 11.6612 2.81717 12.4413C0.882472 14.1218 0 16.6029 0 19.2745C0 22.7077 1.03293 25.3813 3.06474 27.1498C5.0374 28.8668 7.60545 29.4242 10.0713 29.4242C10.154 29.4242 10.2364 29.4232 10.3187 29.4212C10.3468 29.4232 10.3751 29.4242 10.4037 29.4242H23.887L23.9036 29.4242L24.2319 29.4242C24.2807 29.4242 24.329 29.4212 24.3764 29.4154C26.1551 29.3478 28.0286 28.8787 29.5136 27.5868C31.1882 26.1301 32 23.9551 32 21.2701C32 19.2197 31.3875 17.1064 29.8858 15.5898C29.1215 14.8178 28.1838 14.261 27.1107 13.954C26.9199 13.8995 26.7726 13.8571 26.6555 13.8216C26.6523 13.7186 26.6499 13.5919 26.6469 13.4318C26.6041 11.075 25.8268 8.90235 24.3027 7.19984C22.3115 4.9757 19.2962 3.82422 15.7519 3.82422ZM10.3202 29.3574L10.3218 29.4211L10.3187 29.4212L10.3155 29.4209L10.3202 29.3574ZM24.3712 29.3518L24.3736 29.4155L24.3764 29.4154L24.3792 29.415L24.3712 29.3518ZM6.2067 10.7241L6.24149 10.7143L6.2589 10.7755L6.19735 10.759L6.2067 10.7241ZM9.90485 8.36876C11.2123 6.85101 13.2263 6.19487 15.7519 6.19487C18.8001 6.19487 21.1105 7.17673 22.5515 8.78629C23.6563 10.0204 24.2571 11.627 24.2907 13.4751L24.2915 13.5187C24.2968 13.8139 24.3021 14.1071 24.3271 14.3467C24.3513 14.5782 24.41 14.9862 24.6855 15.3467C24.9697 15.7185 25.3706 15.881 25.5826 15.9606C25.8169 16.0486 26.1146 16.1338 26.4248 16.2225L26.4661 16.2343C27.1558 16.4316 27.7394 16.7812 28.2161 17.2627C29.1591 18.2152 29.6433 19.6545 29.6433 21.2701C29.6433 23.4726 28.992 24.9064 27.9721 25.7937C27.0118 26.629 25.6966 27.0056 24.2023 27.0493C24.1782 27.05 24.1543 27.0514 24.1305 27.0535H23.9268L23.9059 27.0536H23.9039L23.887 27.0535H10.5171C10.4639 27.0482 10.4098 27.0464 10.3551 27.0484C10.261 27.0518 10.1664 27.0535 10.0713 27.0535C7.91336 27.0535 5.98951 26.5607 4.60679 25.3571C3.22912 24.158 2.35667 22.2252 2.35667 19.2745C2.35667 17.1138 3.06162 15.3611 4.3574 14.2356C4.96886 13.7045 5.70784 13.3138 6.57048 13.0811L6.60503 13.0717C6.81269 13.0157 7.02958 12.9573 7.20841 12.8934C7.39375 12.8273 7.68725 12.7069 7.93912 12.4512C8.18756 12.1989 8.30448 11.9091 8.36953 11.7207C8.43097 11.5427 8.48611 11.3285 8.53813 11.1263L8.54708 11.0915C8.83546 9.97163 9.29551 9.0761 9.90485 8.36876Z"
    fill="#4B5563" />
  <circle cx="1.18033" cy="1.18033" r="1.18033" transform="matrix(-1 0 0 1 12.3594 13.375)"
    fill="#4B5563" />
  <path d="M10.9842 14.377L13.1875 16.5802" stroke="#4B5563" stroke-width="0.675" />
  <circle cx="20.821" cy="14.5553" r="1.18033" fill="#4B5563" />
  <path d="M21.0353 14.377L18.832 16.5802" stroke="#4B5563" stroke-width="0.675" />
  <path fill-rule="evenodd" clip-rule="evenodd"
    d="M11.6623 21.6655C10.9293 21.3305 10.5031 20.5492 10.662 19.7591C11.2443 16.8633 13.4302 14.7109 16.0377 14.7109C18.6516 14.7109 20.8418 16.8739 21.4177 19.7803C21.5745 20.5719 21.1449 21.3528 20.4095 21.685C19.082 22.2846 17.6086 22.6184 16.0573 22.6184C14.4893 22.6184 13.0009 22.2774 11.6623 21.6655Z"
    fill="#4B5563" />
  <path
    d="M10.9929 19.8256C11.5525 17.0429 13.6324 15.0484 16.0377 15.0484V14.3734C13.228 14.3734 10.9362 16.6837 10.3311 19.6926L10.9929 19.8256ZM16.0377 15.0484C18.4489 15.0484 20.5332 17.0527 21.0866 19.8459L21.7487 19.7147C21.1504 16.695 18.8544 14.3734 16.0377 14.3734V15.0484ZM20.2705 21.3774C18.9858 21.9577 17.5598 22.2809 16.0573 22.2809V22.9559C17.6575 22.9559 19.1781 22.6116 20.5484 21.9926L20.2705 21.3774ZM16.0573 22.2809C14.5387 22.2809 13.0981 21.9507 11.8026 21.3586L11.522 21.9725C12.9038 22.6041 14.4399 22.9559 16.0573 22.9559V22.2809ZM21.0866 19.8459C21.2112 20.4746 20.8715 21.106 20.2705 21.3774L20.5484 21.9926C21.4183 21.5997 21.9379 20.6692 21.7487 19.7147L21.0866 19.8459ZM10.3311 19.6926C10.1395 20.6453 10.655 21.5762 11.522 21.9725L11.8026 21.3586C11.2036 21.0848 10.8667 20.4531 10.9929 19.8256L10.3311 19.6926Z"
    fill="#4B5563" />
</svg>