<svg width="20" height="20" viewBox="0 0 20 20" fill="none" xmlns="http://www.w3.org/2000/svg">
  <path
    d="M13.7107 1.17969C12.5778 1.23927 11.2535 1.79063 10.4818 2.50861C9.77788 3.15994 9.19878 4.12735 9.42457 5.06749C10.6625 5.09677 11.9416 4.53228 12.6827 3.80218C13.376 3.12258 13.9007 2.16123 13.7107 1.17969Z"
    stroke="currentColor" stroke-width="1.25" stroke-linejoin="round" />
  <path
    d="M16.3226 9.07266C15.5093 8.07751 14.3663 7.5 13.2869 7.5C11.8619 7.5 11.2591 8.16569 10.2691 8.16569C9.24821 8.16569 8.47265 7.50194 7.2403 7.50194C6.02979 7.50194 4.74083 8.22383 3.92356 9.45832C2.77462 11.1967 2.97124 14.4651 4.83318 17.2489C5.49951 18.2451 6.38927 19.3652 7.5531 19.3749C8.58884 19.3846 8.88079 18.7266 10.2839 18.7199C11.6871 18.7121 11.9532 19.3836 12.987 19.373C14.1518 19.3642 15.0902 18.123 15.7566 17.1269C16.2342 16.4127 16.412 16.0532 16.7824 15.247C14.0883 14.2461 13.6563 10.5077 16.3226 9.07266Z"
    stroke="currentColor" stroke-width="1.25" stroke-linejoin="round" />
</svg>
