<svg width="40" height="40" viewBox="0 0 40 40" fill="none" xmlns="http://www.w3.org/2000/svg"><path fill-rule="evenodd" clip-rule="evenodd" d="M23.17 5.22h-6.34c-2.83 0-5.07 0-6.84.24-1.81.25-3.3.78-4.48 1.98-1.18 1.21-1.7 2.74-1.94 4.6-.24 1.8-.24 4.1-.24 7v.19c0 2.89 0 5.19.24 7 .24 1.85.76 3.38 1.94 4.59 1.18 1.2 2.67 1.73 4.48 1.98 1.77.24 4.01.24 6.83.24h6.35c2.83 0 5.07 0 6.84-.24 1.81-.25 3.3-.78 4.48-1.98 1.18-1.21 1.7-2.74 1.94-4.6.24-1.8.24-4.1.24-7v-.19c0-2.89 0-5.19-.24-7-.24-1.85-.76-3.38-1.94-4.59-1.18-1.2-2.67-1.73-4.48-1.98-1.77-.24-4.01-.24-6.84-.24ZM10.33 8.04c1.57-.21 3.65-.22 6.6-.22h6.15c2.94 0 5.01 0 6.59.22 1.53.21 2.4.6 3.02 1.25.63.64 1.01 1.52 1.22 3.1.21 1.6.22 3.73.22 6.74 0 3.01 0 5.14-.22 6.74-.2 1.58-.59 2.46-1.22 3.1-.62.64-1.49 1.04-3.02 1.25-1.58.21-3.65.22-6.6.22h-6.15c-2.94 0-5.02 0-6.59-.22-1.53-.21-2.4-.6-3.02-1.25-.63-.64-1.02-1.52-1.22-3.1a57.99 57.99 0 0 1-.22-6.74c0-3 0-5.13.22-6.74.2-1.58.59-2.46 1.22-3.1.62-.64 1.49-1.04 3.02-1.25Z" fill="#4B5563"/><path d="M12.36 12.1c0 .88-.69 1.59-1.55 1.59-.85 0-1.55-.71-1.55-1.6 0-.87.7-1.58 1.55-1.58.86 0 1.55.71 1.55 1.59ZM15.47 13.69c.85 0 1.55-.71 1.55-1.6 0-.87-.7-1.58-1.55-1.58-.86 0-1.56.71-1.56 1.59 0 .88.7 1.59 1.56 1.59Z" fill="#4B5563"/></svg>