<svg width="18" height="18" viewBox="0 0 18 18" fill="none" xmlns="http://www.w3.org/2000/svg">
<path d="M8.99997 0C8.58221 0 8.24355 0.338663 8.24355 0.756424V9.92169L5.87103 7.54917C5.57563 7.25377 5.09669 7.25377 4.80129 7.54917C4.50589 7.84457 4.50589 8.32352 4.80129 8.61892L8.4651 12.2827C8.7605 12.5781 9.23944 12.5781 9.53485 12.2827L13.1987 8.61892C13.4941 8.32352 13.4941 7.84457 13.1987 7.54917C12.9033 7.25377 12.4243 7.25377 12.1289 7.54917L9.7564 9.92169V0.756424C9.7564 0.338663 9.41773 0 8.99997 0Z" fill="#9BA2AE"/>
<path d="M4.76808 10.9914H3.46604C2.94089 10.9914 2.48963 10.9914 2.12186 11.0295C1.73218 11.0699 1.35166 11.1596 1.00608 11.3963C0.77026 11.5578 0.566419 11.7617 0.404879 11.9975C0.168152 12.3431 0.0784997 12.7236 0.0380983 13.1133C-3.04095e-05 13.4811 -1.60333e-05 13.9323 6.97748e-07 14.4574V14.534C-1.60333e-05 15.0591 -3.04095e-05 15.5104 0.0380983 15.8781C0.0784997 16.2678 0.168152 16.6483 0.404879 16.9939C0.566419 17.2297 0.77026 17.4336 1.00608 17.5951C1.35166 17.8319 1.73218 17.9215 2.12186 17.9619C2.48967 18 2.94093 18 3.46615 18H14.5338C15.059 18 15.5103 18 15.8781 17.9619C16.2678 17.9215 16.6483 17.8319 16.9939 17.5951C17.2297 17.4336 17.4336 17.2297 17.5951 16.9939C17.8319 16.6483 17.9215 16.2678 17.9619 15.8781C18 15.5104 18 15.0592 18 14.534V14.4575C18 13.9323 18 13.4811 17.9619 13.1133C17.9215 12.7236 17.8319 12.3431 17.5951 11.9975C17.4336 11.7617 17.2297 11.5578 16.9939 11.3963C16.6483 11.1596 16.2678 11.0699 15.8781 11.0295C15.5104 10.9914 15.0592 10.9914 14.534 10.9914H13.2319C12.874 10.9914 12.6738 10.9914 12.4927 11.0664C12.3115 11.1415 12.1699 11.2831 11.9169 11.5361L11.6883 11.7647C11.559 11.894 11.4564 11.9966 11.3928 12.0812C11.33 12.1646 11.2865 12.2547 11.3253 12.3483C11.3641 12.442 11.4586 12.4749 11.5619 12.4895C11.6667 12.5043 11.8118 12.5043 11.9947 12.5043H14.4957C15.0695 12.5043 15.4417 12.5052 15.7221 12.5343C15.9896 12.562 16.0867 12.6086 16.139 12.6444C16.2206 12.7003 16.2911 12.7709 16.347 12.8525C16.3828 12.9047 16.4294 13.0019 16.4571 13.2693C16.4862 13.5498 16.4872 13.922 16.4872 14.4957C16.4872 15.0695 16.4862 15.4417 16.4571 15.7221C16.4294 15.9896 16.3828 16.0867 16.347 16.139C16.2911 16.2206 16.2206 16.2911 16.139 16.347C16.0867 16.3828 15.9896 16.4294 15.7221 16.4571C15.4417 16.4862 15.0695 16.4872 14.4957 16.4872H3.50429C2.93052 16.4872 2.55834 16.4862 2.27787 16.4571C2.01045 16.4294 1.91326 16.3828 1.86105 16.347C1.77943 16.2911 1.70888 16.2206 1.65298 16.139C1.61721 16.0867 1.57061 15.9896 1.54288 15.7221C1.5138 15.4417 1.51285 15.0695 1.51285 14.4957C1.51285 13.922 1.5138 13.5498 1.54288 13.2693C1.57061 13.0019 1.61721 12.9047 1.65298 12.8525C1.70888 12.7709 1.77943 12.7003 1.86105 12.6444C1.91326 12.6086 2.01045 12.562 2.27787 12.5343C2.55834 12.5052 2.93052 12.5043 3.50429 12.5043H6.00523C6.18817 12.5043 6.33325 12.5043 6.43808 12.4895C6.54138 12.4749 6.63588 12.442 6.67468 12.3483C6.71347 12.2547 6.6699 12.1646 6.60718 12.0812C6.54354 11.9966 6.44096 11.894 6.3116 11.7647L6.08304 11.5361C5.83001 11.2831 5.68845 11.1415 5.50729 11.0664C5.32613 10.9914 5.12592 10.9914 4.76808 10.9914Z" fill="#9BA2AE"/>
<path d="M14.4957 13.5103C13.9515 13.5103 13.5103 13.9515 13.5103 14.4957C13.5103 15.0399 13.9515 15.4811 14.4957 15.4811C15.0399 15.4811 15.4811 15.0399 15.4811 14.4957C15.4811 13.9515 15.0399 13.5103 14.4957 13.5103Z" fill="#9BA2AE"/>
</svg>
