<svg width="518" height="48" viewBox="0 0 518 48" fill="none" xmlns="http://www.w3.org/2000/svg">
    <g filter="url(#filter0_dd_3044_9339)">
        <rect x="3" y="2" width="512" height="42" rx="6" fill="white" />
        <mask id="mask0_3044_9339" style="mask-type:luminance" maskUnits="userSpaceOnUse" x="170"
            y="11" width="25" height="24">
            <path
                d="M194.27 20.7737H182.756V25.3873H189.372C189.265 26.0403 189.026 26.6826 188.677 27.2683C188.276 27.9393 187.781 28.4502 187.273 28.8392C185.752 30.0046 183.979 30.2429 182.748 30.2429C179.637 30.2429 176.979 28.2325 175.95 25.5006C175.909 25.4014 175.881 25.299 175.847 25.1978C175.62 24.5025 175.496 23.7661 175.496 23.0008C175.496 22.2042 175.63 21.4417 175.876 20.7216C176.843 17.8814 179.561 15.7601 182.75 15.7601C183.391 15.7601 184.009 15.8364 184.595 15.9887C185.933 16.3367 186.88 17.0221 187.46 17.5643L190.961 14.1358C188.832 12.1832 186.056 11 182.744 11C180.097 10.9999 177.653 11.8248 175.65 13.2188C174.025 14.3493 172.693 15.8629 171.794 17.6208C170.958 19.2507 170.5 21.0569 170.5 22.999C170.5 24.9411 170.959 26.7661 171.795 28.381V28.3918C172.678 30.1062 173.97 31.5823 175.54 32.7076C176.911 33.6907 179.37 35 182.744 35C184.684 35 186.404 34.6502 187.92 33.9946C189.014 33.5217 189.984 32.9049 190.861 32.1122C192.021 31.0647 192.929 29.7691 193.549 28.2785C194.168 26.7878 194.5 25.1022 194.5 23.2747C194.5 22.4236 194.415 21.5592 194.27 20.7736V20.7737Z"
                fill="white" />
        </mask>
        <g mask="url(#mask0_3044_9339)">
            <g filter="url(#filter1_f_3044_9339)">
                <path
                    d="M170.323 23.0801C170.336 24.9916 170.881 26.9638 171.705 28.5558V28.5668C172.301 29.723 173.115 30.6363 174.042 31.5413L179.643 29.4977C178.583 28.9594 178.422 28.6296 177.662 28.0278C176.886 27.245 176.307 26.3465 175.947 25.2929H175.933L175.947 25.2819C175.71 24.5862 175.687 23.8476 175.678 23.0801H170.323Z"
                    fill="url(#paint0_radial_3044_9339)" />
            </g>
            <g filter="url(#filter2_f_3044_9339)">
                <path
                    d="M182.755 10.9121C182.202 12.8569 182.414 14.7473 182.755 15.8472C183.395 15.8477 184.01 15.9239 184.594 16.0757C185.933 16.4237 186.88 17.1092 187.46 17.6513L191.051 14.1352C188.924 12.1849 186.364 10.9152 182.755 10.9121Z"
                    fill="url(#paint1_radial_3044_9339)" />
            </g>
            <g filter="url(#filter3_f_3044_9339)">
                <path
                    d="M182.744 10.8975C180.028 10.8974 177.521 11.7434 175.467 13.1732C174.704 13.7041 174.004 14.3174 173.381 14.9993C173.218 16.5312 174.603 18.414 177.347 18.3984C178.679 16.8498 180.648 15.8478 182.839 15.8478C182.841 15.8478 182.843 15.8479 182.845 15.848L182.756 10.8978C182.752 10.8978 182.748 10.8975 182.744 10.8975Z"
                    fill="url(#paint2_radial_3044_9339)" />
            </g>
            <g filter="url(#filter4_f_3044_9339)">
                <path
                    d="M191.706 23.6345L189.282 25.2995C189.176 25.9524 188.937 26.5947 188.587 27.1804C188.186 27.8514 187.691 28.3623 187.183 28.7514C185.666 29.9144 183.897 30.1538 182.666 30.1548C181.394 32.322 181.171 33.4075 182.756 35.1567C184.717 35.1552 186.456 34.8012 187.989 34.1382C189.098 33.6589 190.08 33.0338 190.97 32.2305C192.145 31.1689 193.065 29.8559 193.693 28.3453C194.321 26.8346 194.657 25.1265 194.657 23.2744L191.706 23.6345Z"
                    fill="url(#paint3_radial_3044_9339)" />
            </g>
            <g filter="url(#filter5_f_3044_9339)">
                <path
                    d="M182.577 20.5986V25.5628H194.238C194.34 24.883 194.679 24.0032 194.679 23.2749C194.679 22.4238 194.594 21.3842 194.449 20.5986H182.577Z"
                    fill="#3086FF" />
            </g>
            <g filter="url(#filter6_f_3044_9339)">
                <path
                    d="M173.437 14.8232C172.718 15.6106 172.103 16.4918 171.615 17.4448C170.779 19.0747 170.321 21.0562 170.321 22.9983C170.321 23.0257 170.324 23.0524 170.324 23.0798C170.694 23.7898 175.439 23.6539 175.678 23.0798C175.678 23.053 175.675 23.0269 175.675 23C175.675 22.2035 175.81 21.6164 176.055 20.8962C176.358 20.0079 176.831 19.19 177.437 18.4852C177.575 18.3099 177.941 17.9329 178.048 17.7068C178.089 17.6207 177.974 17.5724 177.967 17.5421C177.96 17.5081 177.807 17.5354 177.772 17.5102C177.663 17.43 177.446 17.3881 177.315 17.3509C177.034 17.2713 176.568 17.0959 176.31 16.914C175.492 16.3391 174.216 15.6524 173.437 14.8232Z"
                    fill="url(#paint4_radial_3044_9339)" />
            </g>
            <g filter="url(#filter7_f_3044_9339)">
                <path
                    d="M176.326 17.5462C178.222 18.6945 178.767 16.9665 180.028 16.4258L177.835 11.8789C177.029 12.2179 176.266 12.6391 175.559 13.1312C174.504 13.8661 173.571 14.7629 172.801 15.7835L176.326 17.5462Z"
                    fill="url(#paint5_radial_3044_9339)" />
            </g>
            <g filter="url(#filter8_f_3044_9339)">
                <path
                    d="M177.098 29.1464C174.554 30.0652 174.155 30.0981 173.921 31.6753C174.369 32.1121 174.85 32.5162 175.361 32.8826C176.732 33.8656 179.37 35.1749 182.744 35.1749C182.748 35.1749 182.752 35.1746 182.756 35.1746V30.0671C182.753 30.0671 182.75 30.0673 182.748 30.0673C181.484 30.0673 180.475 29.7355 179.44 29.1584C179.184 29.0161 178.721 29.3982 178.486 29.2274C178.161 28.9918 177.38 29.4304 177.098 29.1464Z"
                    fill="url(#paint6_radial_3044_9339)" />
            </g>
            <g opacity="0.5" filter="url(#filter9_f_3044_9339)">
                <path
                    d="M181.266 29.9062V35.0861C181.738 35.1414 182.229 35.1749 182.744 35.1749C183.261 35.1749 183.761 35.1484 184.246 35.0996V29.9412C183.702 30.0342 183.19 30.0673 182.748 30.0673C182.239 30.0673 181.745 30.0081 181.266 29.9062Z"
                    fill="url(#paint7_linear_3044_9339)" />
            </g>
        </g>
        <path
            d="M210.962 21.1293C210.668 21.1293 210.509 20.9851 210.405 20.7067C210.022 19.6577 209.033 19.081 207.884 19.081C206.129 19.081 204.817 20.4382 204.817 22.9091C204.817 25.3999 206.134 26.7372 207.879 26.7372C209.023 26.7372 210.007 26.1754 210.405 25.1413C210.509 24.858 210.668 24.7188 210.962 24.7188H211.513C211.862 24.7188 212.05 24.9325 211.946 25.2706C211.429 26.9858 209.898 28.1392 207.869 28.1392C205.224 28.1392 203.29 26.1655 203.29 22.9091C203.29 19.6527 205.234 17.679 207.869 17.679C209.833 17.679 211.424 18.7379 211.951 20.5774C212.05 20.9205 211.862 21.1293 211.513 21.1293H210.962ZM217.011 28.1541C214.858 28.1541 213.451 26.5781 213.451 24.2166C213.451 21.8402 214.858 20.2642 217.011 20.2642C219.164 20.2642 220.57 21.8402 220.57 24.2166C220.57 26.5781 219.164 28.1541 217.011 28.1541ZM214.953 24.2116C214.953 25.6783 215.609 26.9062 217.016 26.9062C218.413 26.9062 219.069 25.6783 219.069 24.2116C219.069 22.75 218.413 21.5071 217.016 21.5071C215.609 21.5071 214.953 22.75 214.953 24.2116ZM223.716 27.5028C223.716 27.826 223.542 28 223.219 28H222.727C222.404 28 222.23 27.826 222.23 27.5028V20.8608C222.23 20.5376 222.404 20.3636 222.727 20.3636H223.159C223.483 20.3636 223.657 20.5376 223.657 20.8608V21.6065H223.751C224.104 20.7962 224.855 20.2642 226.003 20.2642C227.564 20.2642 228.603 21.2536 228.603 23.1428V27.5028C228.603 27.826 228.429 28 228.106 28H227.614C227.291 28 227.117 27.826 227.117 27.5028V23.3217C227.117 22.2131 226.505 21.5518 225.496 21.5518C224.462 21.5518 223.716 22.2479 223.716 23.4659V27.5028ZM234.162 21.0597C234.162 21.3828 233.988 21.5568 233.664 21.5568H232.596V25.7578C232.596 26.6179 233.028 26.777 233.51 26.777H233.56C233.873 26.767 234.067 26.8714 234.132 27.1797L234.196 27.4631C234.266 27.7713 234.147 28.0099 233.828 28.0597C233.689 28.0795 233.525 28.0994 233.336 28.0994C232.163 28.1243 231.104 27.4531 231.109 26.0661V21.5568H230.488C230.164 21.5568 229.99 21.3828 229.99 21.0597V20.8608C229.99 20.5376 230.164 20.3636 230.488 20.3636H231.109V19.0312C231.109 18.7081 231.283 18.5341 231.606 18.5341H232.098C232.422 18.5341 232.596 18.7081 232.596 19.0312V20.3636H233.664C233.988 20.3636 234.162 20.5376 234.162 20.8608V21.0597ZM236.557 19.1854C236.04 19.1854 235.617 18.7876 235.617 18.3004C235.617 17.8132 236.04 17.4105 236.557 17.4105C237.069 17.4105 237.496 17.8132 237.496 18.3004C237.496 18.7876 237.069 19.1854 236.557 19.1854ZM235.806 27.5028V20.8608C235.806 20.5376 235.98 20.3636 236.303 20.3636H236.795C237.118 20.3636 237.292 20.5376 237.292 20.8608V27.5028C237.292 27.826 237.118 28 236.795 28H236.303C235.98 28 235.806 27.826 235.806 27.5028ZM240.779 27.5028C240.779 27.826 240.605 28 240.282 28H239.789C239.466 28 239.292 27.826 239.292 27.5028V20.8608C239.292 20.5376 239.466 20.3636 239.789 20.3636H240.222C240.545 20.3636 240.719 20.5376 240.719 20.8608V21.6065H240.814C241.167 20.7962 241.917 20.2642 243.066 20.2642C244.627 20.2642 245.666 21.2536 245.666 23.1428V27.5028C245.666 27.826 245.492 28 245.169 28H244.676C244.353 28 244.179 27.826 244.179 27.5028V23.3217C244.179 22.2131 243.568 21.5518 242.559 21.5518C241.525 21.5518 240.779 22.2479 240.779 23.4659V27.5028ZM252.497 20.8608C252.497 20.5376 252.671 20.3636 252.994 20.3636H253.491C253.814 20.3636 253.988 20.5376 253.988 20.8608V27.5028C253.988 27.826 253.814 28 253.491 28H253.024C252.701 28 252.527 27.826 252.527 27.5028V26.6776H252.447C252.094 27.4929 251.314 28.0994 250.165 28.0994C248.699 28.0994 247.659 27.1151 247.659 25.2209V20.8608C247.659 20.5376 247.833 20.3636 248.157 20.3636H248.649C248.972 20.3636 249.146 20.5376 249.146 20.8608V25.0419C249.146 26.081 249.782 26.7472 250.702 26.7472C251.537 26.7472 252.502 26.1307 252.497 24.8331V20.8608ZM259.277 28.1541C257.025 28.1541 255.643 26.603 255.643 24.2315C255.643 21.8849 257.045 20.2642 259.172 20.2642C260.903 20.2642 262.553 21.343 262.553 24.1023V24.1321C262.553 24.4553 262.379 24.6293 262.056 24.6293H257.124C257.164 26.1009 258.019 26.9261 259.292 26.9261C259.973 26.9261 260.525 26.6875 260.853 26.2202C261.022 25.9716 261.191 25.8572 261.479 25.9119L261.917 25.9915C262.255 26.0561 262.424 26.25 262.309 26.5036C261.842 27.5128 260.748 28.1541 259.277 28.1541ZM257.129 23.5156H261.096C261.091 22.3473 260.336 21.4922 259.182 21.4922C257.974 21.4922 257.189 22.4318 257.129 23.5156ZM267.48 20.9254C267.381 20.5824 267.54 20.3636 267.898 20.3636H268.415C268.708 20.3636 268.892 20.5028 268.966 20.7862L270.349 25.9716H270.423L271.81 20.7862C271.885 20.4979 272.069 20.3636 272.362 20.3636H273.023C273.317 20.3636 273.501 20.5028 273.575 20.7862L274.952 25.9467H275.027L276.399 20.7862C276.474 20.5028 276.657 20.3636 276.951 20.3636H277.468C277.826 20.3636 277.985 20.5774 277.885 20.9254L275.932 27.5824C275.847 27.8608 275.668 28 275.375 28H274.729C274.435 28 274.251 27.8658 274.172 27.5774L272.74 22.4865H272.626L271.194 27.5774C271.114 27.8658 270.93 28 270.637 28H269.996C269.702 28 269.523 27.8608 269.439 27.5824L267.48 20.9254ZM280.211 19.1854C279.694 19.1854 279.271 18.7876 279.271 18.3004C279.271 17.8132 279.694 17.4105 280.211 17.4105C280.723 17.4105 281.151 17.8132 281.151 18.3004C281.151 18.7876 280.723 19.1854 280.211 19.1854ZM279.46 27.5028V20.8608C279.46 20.5376 279.634 20.3636 279.957 20.3636H280.45C280.773 20.3636 280.947 20.5376 280.947 20.8608V27.5028C280.947 27.826 280.773 28 280.45 28H279.957C279.634 28 279.46 27.826 279.46 27.5028ZM286.511 21.0597C286.511 21.3828 286.337 21.5568 286.014 21.5568H284.945V25.7578C284.945 26.6179 285.378 26.777 285.86 26.777H285.91C286.223 26.767 286.417 26.8714 286.481 27.1797L286.546 27.4631C286.616 27.7713 286.496 28.0099 286.178 28.0597C286.039 28.0795 285.875 28.0994 285.686 28.0994C284.513 28.1243 283.454 27.4531 283.459 26.0661V21.5568H282.837C282.514 21.5568 282.34 21.3828 282.34 21.0597V20.8608C282.34 20.5376 282.514 20.3636 282.837 20.3636H283.459V19.0312C283.459 18.7081 283.633 18.5341 283.956 18.5341H284.448C284.771 18.5341 284.945 18.7081 284.945 19.0312V20.3636H286.014C286.337 20.3636 286.511 20.5376 286.511 20.8608V21.0597ZM289.806 27.5028C289.806 27.826 289.632 28 289.309 28H288.817C288.494 28 288.32 27.826 288.32 27.5028V18.3153C288.32 17.9922 288.494 17.8182 288.817 17.8182H289.289C289.612 17.8182 289.786 17.9922 289.786 18.3153V21.6065H289.881C290.239 20.7812 290.955 20.2642 292.143 20.2642C293.714 20.2642 294.758 21.2386 294.758 23.1428V27.5028C294.758 27.826 294.584 28 294.261 28H293.768C293.445 28 293.271 27.826 293.271 27.5028V23.3217C293.271 22.2031 292.66 21.5518 291.636 21.5518C290.577 21.5518 289.806 22.2479 289.806 23.4659V27.5028ZM307.879 21.0348C307.596 21.0348 307.427 20.9055 307.307 20.642C306.86 19.6676 306.005 19.081 304.807 19.081C303.081 19.081 301.764 20.4382 301.764 22.9041C301.764 25.38 303.072 26.7372 304.866 26.7372C306.497 26.7372 307.581 25.6982 307.616 24.0575H305.597C305.274 24.0575 305.1 23.8835 305.1 23.5604V23.2869C305.1 22.9638 305.274 22.7898 305.597 22.7898H308.605C308.928 22.7898 309.102 22.9638 309.102 23.2869V23.9482C309.102 26.5185 307.337 28.1392 304.866 28.1392C302.107 28.1392 300.238 26.1357 300.238 22.9141C300.238 19.6626 302.162 17.679 304.797 17.679C306.785 17.679 308.361 18.8026 308.898 20.483C309.003 20.821 308.819 21.0348 308.466 21.0348H307.879ZM314.15 28.1541C311.997 28.1541 310.59 26.5781 310.59 24.2166C310.59 21.8402 311.997 20.2642 314.15 20.2642C316.302 20.2642 317.709 21.8402 317.709 24.2166C317.709 26.5781 316.302 28.1541 314.15 28.1541ZM312.091 24.2116C312.091 25.6783 312.748 26.9062 314.154 26.9062C315.551 26.9062 316.208 25.6783 316.208 24.2116C316.208 22.75 315.551 21.5071 314.154 21.5071C312.748 21.5071 312.091 22.75 312.091 24.2116ZM322.585 28.1541C320.432 28.1541 319.025 26.5781 319.025 24.2166C319.025 21.8402 320.432 20.2642 322.585 20.2642C324.738 20.2642 326.145 21.8402 326.145 24.2166C326.145 26.5781 324.738 28.1541 322.585 28.1541ZM320.527 24.2116C320.527 25.6783 321.183 26.9062 322.59 26.9062C323.987 26.9062 324.643 25.6783 324.643 24.2116C324.643 22.75 323.987 21.5071 322.59 21.5071C321.183 21.5071 320.527 22.75 320.527 24.2116ZM331.006 31.0227C329.484 31.0227 328.525 30.4709 328.013 29.745C327.824 29.4716 327.938 29.218 328.246 29.0888L328.624 28.9347C328.898 28.8203 329.097 28.8949 329.29 29.1236C329.599 29.4815 330.101 29.8246 331.021 29.8246C332.149 29.8246 332.969 29.3075 332.969 28.1094V26.608H332.875C332.607 27.0952 332.065 27.8857 330.663 27.8857C328.858 27.8857 327.471 26.5881 327.471 24.152C327.471 21.7209 328.828 20.2642 330.673 20.2642C332.094 20.2642 332.621 21.1293 332.885 21.6016H332.994V20.8608C332.994 20.5376 333.168 20.3636 333.491 20.3636H333.954C334.277 20.3636 334.451 20.5376 334.451 20.8608V28.169C334.451 30.1328 332.95 31.0227 331.006 31.0227ZM328.972 24.1321C328.972 25.6335 329.663 26.6527 330.991 26.6527C332.273 26.6527 332.984 25.7081 332.984 24.1321C332.984 22.5859 332.288 21.527 330.991 21.527C329.648 21.527 328.972 22.6655 328.972 24.1321ZM337.931 27.5028C337.931 27.826 337.757 28 337.434 28H336.942C336.619 28 336.445 27.826 336.445 27.5028V18.3153C336.445 17.9922 336.619 17.8182 336.942 17.8182H337.434C337.757 17.8182 337.931 17.9922 337.931 18.3153V27.5028ZM343.222 28.1541C340.97 28.1541 339.588 26.603 339.588 24.2315C339.588 21.8849 340.99 20.2642 343.118 20.2642C344.848 20.2642 346.498 21.343 346.498 24.1023V24.1321C346.498 24.4553 346.324 24.6293 346.001 24.6293H341.069C341.109 26.1009 341.964 26.9261 343.237 26.9261C343.918 26.9261 344.47 26.6875 344.798 26.2202C344.967 25.9716 345.136 25.8572 345.425 25.9119L345.862 25.9915C346.2 26.0561 346.369 26.25 346.255 26.5036C345.787 27.5128 344.694 28.1541 343.222 28.1541ZM341.074 23.5156H345.042C345.037 22.3473 344.281 21.4922 343.128 21.4922C341.92 21.4922 341.134 22.4318 341.074 23.5156Z"
            fill="black" />
    </g>
    <defs>
        <filter id="filter0_dd_3044_9339" x="0" y="0" width="518" height="48"
            filterUnits="userSpaceOnUse" color-interpolation-filters="sRGB">
            <feFlood flood-opacity="0" result="BackgroundImageFix" />
            <feColorMatrix in="SourceAlpha" type="matrix"
                values="0 0 0 0 0 0 0 0 0 0 0 0 0 0 0 0 0 0 127 0" result="hardAlpha" />
            <feOffset dy="1" />
            <feGaussianBlur stdDeviation="1.5" />
            <feColorMatrix type="matrix" values="0 0 0 0 0 0 0 0 0 0 0 0 0 0 0 0 0 0 0.1 0" />
            <feBlend mode="normal" in2="BackgroundImageFix" result="effect1_dropShadow_3044_9339" />
            <feColorMatrix in="SourceAlpha" type="matrix"
                values="0 0 0 0 0 0 0 0 0 0 0 0 0 0 0 0 0 0 127 0" result="hardAlpha" />
            <feMorphology radius="1" operator="erode" in="SourceAlpha"
                result="effect2_dropShadow_3044_9339" />
            <feOffset dy="1" />
            <feGaussianBlur stdDeviation="1" />
            <feColorMatrix type="matrix" values="0 0 0 0 0 0 0 0 0 0 0 0 0 0 0 0 0 0 0.1 0" />
            <feBlend mode="normal" in2="effect1_dropShadow_3044_9339"
                result="effect2_dropShadow_3044_9339" />
            <feBlend mode="normal" in="SourceGraphic" in2="effect2_dropShadow_3044_9339"
                result="shape" />
        </filter>
        <filter id="filter1_f_3044_9339" x="170.267" y="23.024" width="9.43153" height="8.57313"
            filterUnits="userSpaceOnUse" color-interpolation-filters="sRGB">
            <feFlood flood-opacity="0" result="BackgroundImageFix" />
            <feBlend mode="normal" in="SourceGraphic" in2="BackgroundImageFix" result="shape" />
            <feGaussianBlur stdDeviation="0.0280485" result="effect1_foregroundBlur_3044_9339" />
        </filter>
        <filter id="filter2_f_3044_9339" x="182.359" y="10.856" width="8.74794" height="6.85145"
            filterUnits="userSpaceOnUse" color-interpolation-filters="sRGB">
            <feFlood flood-opacity="0" result="BackgroundImageFix" />
            <feBlend mode="normal" in="SourceGraphic" in2="BackgroundImageFix" result="shape" />
            <feGaussianBlur stdDeviation="0.0280485" result="effect1_foregroundBlur_3044_9339" />
        </filter>
        <filter id="filter3_f_3044_9339" x="173.312" y="10.8414" width="9.58876" height="7.61317"
            filterUnits="userSpaceOnUse" color-interpolation-filters="sRGB">
            <feFlood flood-opacity="0" result="BackgroundImageFix" />
            <feBlend mode="normal" in="SourceGraphic" in2="BackgroundImageFix" result="shape" />
            <feGaussianBlur stdDeviation="0.0280485" result="effect1_foregroundBlur_3044_9339" />
        </filter>
        <filter id="filter4_f_3044_9339" x="181.583" y="23.2183" width="13.1307" height="11.994"
            filterUnits="userSpaceOnUse" color-interpolation-filters="sRGB">
            <feFlood flood-opacity="0" result="BackgroundImageFix" />
            <feBlend mode="normal" in="SourceGraphic" in2="BackgroundImageFix" result="shape" />
            <feGaussianBlur stdDeviation="0.0280485" result="effect1_foregroundBlur_3044_9339" />
        </filter>
        <filter id="filter5_f_3044_9339" x="182.521" y="20.5425" width="12.2147" height="5.07606"
            filterUnits="userSpaceOnUse" color-interpolation-filters="sRGB">
            <feFlood flood-opacity="0" result="BackgroundImageFix" />
            <feBlend mode="normal" in="SourceGraphic" in2="BackgroundImageFix" result="shape" />
            <feGaussianBlur stdDeviation="0.0280485" result="effect1_foregroundBlur_3044_9339" />
        </filter>
        <filter id="filter6_f_3044_9339" x="170.265" y="14.7671" width="7.84755" height="8.85145"
            filterUnits="userSpaceOnUse" color-interpolation-filters="sRGB">
            <feFlood flood-opacity="0" result="BackgroundImageFix" />
            <feBlend mode="normal" in="SourceGraphic" in2="BackgroundImageFix" result="shape" />
            <feGaussianBlur stdDeviation="0.0280485" result="effect1_foregroundBlur_3044_9339" />
        </filter>
        <filter id="filter7_f_3044_9339" x="172.406" y="11.4845" width="8.01533" height="6.8415"
            filterUnits="userSpaceOnUse" color-interpolation-filters="sRGB">
            <feFlood flood-opacity="0" result="BackgroundImageFix" />
            <feBlend mode="normal" in="SourceGraphic" in2="BackgroundImageFix" result="shape" />
            <feGaussianBlur stdDeviation="0.197193" result="effect1_foregroundBlur_3044_9339" />
        </filter>
        <filter id="filter8_f_3044_9339" x="173.865" y="29.0699" width="8.94715" height="6.16102"
            filterUnits="userSpaceOnUse" color-interpolation-filters="sRGB">
            <feFlood flood-opacity="0" result="BackgroundImageFix" />
            <feBlend mode="normal" in="SourceGraphic" in2="BackgroundImageFix" result="shape" />
            <feGaussianBlur stdDeviation="0.0280485" result="effect1_foregroundBlur_3044_9339" />
        </filter>
        <filter id="filter9_f_3044_9339" x="181.21" y="29.8502" width="3.09266" height="5.38075"
            filterUnits="userSpaceOnUse" color-interpolation-filters="sRGB">
            <feFlood flood-opacity="0" result="BackgroundImageFix" />
            <feBlend mode="normal" in="SourceGraphic" in2="BackgroundImageFix" result="shape" />
            <feGaussianBlur stdDeviation="0.0280485" result="effect1_foregroundBlur_3044_9339" />
        </filter>
        <radialGradient id="paint0_radial_3044_9339" cx="0" cy="0" r="1"
            gradientTransform="matrix(-0.498722 -11.9519 17.9311 -0.717223 179.531 31.3612)"
            gradientUnits="userSpaceOnUse">
            <stop offset="0.141612" stop-color="#1ABD4D" />
            <stop offset="0.247515" stop-color="#6EC30D" />
            <stop offset="0.311547" stop-color="#8AC502" />
            <stop offset="0.366013" stop-color="#A2C600" />
            <stop offset="0.445673" stop-color="#C8C903" />
            <stop offset="0.540305" stop-color="#EBCB03" />
            <stop offset="0.615636" stop-color="#F7CD07" />
            <stop offset="0.699345" stop-color="#FDCD04" />
            <stop offset="0.771242" stop-color="#FDCE05" />
            <stop offset="0.860566" stop-color="#FFCE0A" />
        </radialGradient>
        <radialGradient id="paint1_radial_3044_9339" cx="0" cy="0" r="1"
            gradientTransform="matrix(8.46967 -2.03557e-05 -1.19045e-05 10.7093 190.715 17.3969)"
            gradientUnits="userSpaceOnUse">
            <stop offset="0.408458" stop-color="#FB4E5A" />
            <stop offset="1" stop-color="#FF4540" />
        </radialGradient>
        <radialGradient id="paint2_radial_3044_9339" cx="0" cy="0" r="1"
            gradientTransform="matrix(-11.8666 6.43492 8.91876 15.766 186.09 9.34726)"
            gradientUnits="userSpaceOnUse">
            <stop offset="0.231273" stop-color="#FF4541" />
            <stop offset="0.311547" stop-color="#FF4540" />
            <stop offset="0.457516" stop-color="#FF4640" />
            <stop offset="0.540305" stop-color="#FF473F" />
            <stop offset="0.699346" stop-color="#FF5138" />
            <stop offset="0.771242" stop-color="#FF5B33" />
            <stop offset="0.860566" stop-color="#FF6C29" />
            <stop offset="1" stop-color="#FF8C18" />
        </radialGradient>
        <radialGradient id="paint3_radial_3044_9339" cx="0" cy="0" r="1"
            gradientTransform="matrix(-21.5204 -27.5047 -10.3696 7.77752 182.932 33.6033)"
            gradientUnits="userSpaceOnUse">
            <stop offset="0.131546" stop-color="#0CBA65" />
            <stop offset="0.209784" stop-color="#0BB86D" />
            <stop offset="0.297297" stop-color="#09B479" />
            <stop offset="0.396257" stop-color="#08AD93" />
            <stop offset="0.477124" stop-color="#0AA6A9" />
            <stop offset="0.568425" stop-color="#0D9CC6" />
            <stop offset="0.667385" stop-color="#1893DD" />
            <stop offset="0.768727" stop-color="#258BF1" />
            <stop offset="0.858506" stop-color="#3086FF" />
        </radialGradient>
        <radialGradient id="paint4_radial_3044_9339" cx="0" cy="0" r="1"
            gradientTransform="matrix(-1.52295 12.8522 18.1501 2.06168 181.704 13.1634)"
            gradientUnits="userSpaceOnUse">
            <stop offset="0.366013" stop-color="#FF4E3A" />
            <stop offset="0.457516" stop-color="#FF8A1B" />
            <stop offset="0.540305" stop-color="#FFA312" />
            <stop offset="0.615636" stop-color="#FFB60C" />
            <stop offset="0.771242" stop-color="#FFCD0A" />
            <stop offset="0.860566" stop-color="#FECF0A" />
            <stop offset="0.915033" stop-color="#FECF08" />
            <stop offset="1" stop-color="#FDCD01" />
        </radialGradient>
        <radialGradient id="paint5_radial_3044_9339" cx="0" cy="0" r="1"
            gradientTransform="matrix(-4.40212 4.76678 -13.7322 -12.1566 179.562 13.0308)"
            gradientUnits="userSpaceOnUse">
            <stop offset="0.315904" stop-color="#FF4C3C" />
            <stop offset="0.603818" stop-color="#FF692C" />
            <stop offset="0.726837" stop-color="#FF7825" />
            <stop offset="0.884534" stop-color="#FF8D1B" />
            <stop offset="1" stop-color="#FF9F13" />
        </radialGradient>
        <radialGradient id="paint6_radial_3044_9339" cx="0" cy="0" r="1"
            gradientTransform="matrix(-11.8666 -6.43492 8.91876 -15.766 186.09 36.6522)"
            gradientUnits="userSpaceOnUse">
            <stop offset="0.231273" stop-color="#0FBC5F" />
            <stop offset="0.311547" stop-color="#0FBC5F" />
            <stop offset="0.366013" stop-color="#0FBC5E" />
            <stop offset="0.457516" stop-color="#0FBC5D" />
            <stop offset="0.540305" stop-color="#12BC58" />
            <stop offset="0.699346" stop-color="#28BF3C" />
            <stop offset="0.771242" stop-color="#38C02B" />
            <stop offset="0.860566" stop-color="#52C218" />
            <stop offset="0.915033" stop-color="#67C30F" />
            <stop offset="1" stop-color="#86C504" />
        </radialGradient>
        <linearGradient id="paint7_linear_3044_9339" x1="181.266" y1="32.5406" x2="184.246"
            y2="32.5406" gradientUnits="userSpaceOnUse">
            <stop stop-color="#0FBC5C" />
            <stop offset="1" stop-color="#0CBA65" />
        </linearGradient>
    </defs>
</svg>