<svg width="32" height="32" viewBox="0 0 32 32" fill="none" xmlns="http://www.w3.org/2000/svg">
  <path fill-rule="evenodd" clip-rule="evenodd"
    d="M22.0002 2.4C21.3375 2.4 20.8002 2.93726 20.8002 3.6C20.8002 3.90811 20.9147 4.1866 21.1055 4.3997C21.274 4.58801 21.4986 4.72108 21.7499 4.77412C21.8296 4.79094 21.9132 4.8 22.0002 4.8C22.6629 4.8 23.2002 4.26274 23.2002 3.6C23.2002 2.93726 22.6629 2.4 22.0002 2.4ZM18.4002 3.6C18.4002 1.61177 20.012 0 22.0002 0C23.5677 0 24.9011 1.00177 25.3953 2.4H27.6002C28.2629 2.4 28.8002 2.93726 28.8002 3.6C28.8002 4.26274 28.2629 4.8 27.6002 4.8L25.3953 4.8C25.2232 5.28692 24.9494 5.72577 24.5993 6.09097C25.4116 6.65094 26.0393 7.30975 26.4893 8.05006C27.3563 9.47637 27.4702 11.052 27.1748 12.4697C26.8848 13.8617 26.3293 14.7465 25.7216 15.2896C25.6651 15.3401 25.6088 15.387 25.5531 15.4305C25.5841 15.7831 25.5791 16.1458 25.5376 16.5174C25.434 17.752 25.1597 19.1579 23.9416 20.429C23.1151 21.2916 22.0412 21.8317 21.2451 22.15C20.8758 22.2977 20.5443 22.4062 20.2901 22.4812C20.1419 22.7482 19.9502 23.1216 19.7681 23.5588C19.4502 24.3228 19.1984 25.1956 19.2002 25.9974C19.2017 26.6624 19.3777 27.7562 19.5784 28.7629C19.6389 29.0664 19.6995 29.3515 19.7542 29.6001H21.2002C21.8629 29.6001 22.4002 30.1374 22.4002 30.8001C22.4002 31.4629 21.8629 32.0001 21.2002 32.0001H15.2002C14.6489 32.0001 14.1685 31.6244 14.0356 31.0893L14.0328 31.078C14.0356 31.0893 14.0356 31.0893 14.0356 31.0893L14.0328 31.078L14.0256 31.0485L13.9991 30.9392C13.9765 30.845 13.9445 30.7096 13.9061 30.5426C13.8296 30.209 13.7273 29.7467 13.6247 29.2321C13.4263 28.2371 13.2023 26.9309 13.2002 26.0028C13.1976 24.8363 13.5279 23.6904 13.8958 22.7746C13.0662 22.5924 12.3012 22.2983 11.6559 21.9204C10.9617 21.5139 10.2627 20.9167 9.88521 20.15H4.40041C3.89644 20.15 3.44577 19.8351 3.27285 19.3617C3.09994 18.8883 3.24124 18.3574 3.62656 18.0325L5.09754 16.7924C4.49325 16.7302 4.02193 16.2196 4.02193 15.5988C4.02193 13.4811 5.61404 12.0214 7.3937 11.1293C9.21959 10.214 11.5944 9.69469 13.9635 9.56319C16.3363 9.43149 18.8183 9.68238 20.8707 10.404C22.3122 10.9108 23.6688 11.7 24.553 12.8599C24.6516 12.6384 24.748 12.3512 24.8252 11.9803C25.024 11.026 24.9256 10.0982 24.4384 9.29663C23.9554 8.50199 22.9985 7.68079 21.1921 7.10867C20.4529 6.93891 19.8028 6.54287 19.3171 6.0003C18.7478 5.36419 18.4002 4.52126 18.4002 3.6ZM7.68523 17.75H10.8C12.1045 17.75 13.0126 17.6915 13.6067 17.3987C13.8572 17.2752 14.0273 17.1188 14.1495 16.896C14.2806 16.6573 14.4 16.2617 14.4 15.6C14.4 14.9373 14.9373 14.4 15.6 14.4C16.2628 14.4 16.8 14.9373 16.8 15.6C16.8 16.5383 16.6319 17.3614 16.2534 18.0509C15.8662 18.7562 15.3049 19.2373 14.6678 19.5513C14.2037 19.7801 13.6917 19.9215 13.1685 20.0089C13.8472 20.3371 14.744 20.5672 15.7254 20.5828C16.9191 20.6018 18.1518 20.5096 19.2539 20.2743L19.2557 20.2739L19.2644 20.2719C19.2751 20.2695 19.2936 20.2651 19.3192 20.2589C19.3703 20.2463 19.4491 20.2259 19.5495 20.1972C19.7512 20.1394 20.0349 20.0491 20.354 19.9215C21.0148 19.6573 21.7253 19.2731 22.2088 18.7685C22.8734 18.0749 23.0631 17.3204 23.1473 16.3012C23.1483 16.2884 23.1496 16.2755 23.1511 16.2627C23.2012 15.8277 23.1629 15.4552 23.0655 15.1315C22.7683 14.1439 21.7884 13.2707 20.0747 12.6681C18.3939 12.0772 16.2425 11.8404 14.0965 11.9595C11.9468 12.0788 9.91763 12.5488 8.46918 13.2748C7.74772 13.6365 7.24577 14.0178 6.9195 14.3988H8.3752C8.87918 14.3988 9.32945 14.7137 9.50236 15.1871C9.67528 15.6605 9.53398 16.1915 9.14866 16.5163L7.68523 17.75ZM17.4317 22.9379C17.0963 22.9609 16.7613 22.9751 16.4297 22.9814C16.0365 23.7866 15.5978 24.9334 15.6002 25.9974C15.6017 26.6624 15.7777 27.7562 15.9784 28.7629C16.0389 29.0664 16.0995 29.3515 16.1542 29.6001H17.2997C17.275 29.4814 17.2499 29.3583 17.2247 29.2321C17.0263 28.2371 16.8023 26.9309 16.8002 26.0028C16.7977 24.8835 17.0998 23.7992 17.4317 22.9379Z"
    fill="#4B5563" />
</svg>