<svg width="20" height="20" viewBox="0 0 20 20" fill="none" xmlns="http://www.w3.org/2000/svg">
  <path
    d="M8.74999 2.89368V16.7723M18.125 9.66932H1.875M2.425 3.63176L17.425 1.88138C17.5124 1.86857 17.6016 1.8751 17.6863 1.90055C17.771 1.92599 17.8493 1.96973 17.9158 2.02878C17.9823 2.08782 18.0355 2.16076 18.0716 2.2426C18.1077 2.32444 18.1259 2.41324 18.125 2.50289V17.4953C18.1243 17.5868 18.1042 17.6771 18.0659 17.7599C18.0277 17.8428 17.9722 17.9162 17.9033 17.9753C17.8345 18.0343 17.7538 18.0775 17.6669 18.102C17.58 18.1264 17.489 18.1315 17.4 18.1168L2.4 15.783C2.2532 15.7563 2.12028 15.6782 2.02436 15.5623C1.92844 15.4464 1.87558 15.3001 1.875 15.1488V4.21522C1.88561 4.06828 1.94631 3.92968 2.04668 3.82321C2.14704 3.71674 2.2808 3.64905 2.425 3.63176Z"
    stroke="#4B5563" stroke-width="1.25" stroke-linecap="round" stroke-linejoin="round" />
</svg>