<svg width="16" height="16" fill="none" xmlns="http://www.w3.org/2000/svg"><path d="M6.217 13.509c0-.075 0-.112.006-.143a.314.314 0 0 1 .24-.253c.03-.006.065-.006.135-.006h2.896c.07 0 .106 0 .135.006.121.026.216.125.24.253.006.03.006.068.006.143 0 .224 0 .336-.018.429a.94.94 0 0 1-.718.757c-.089.018-.195.018-.407.018H7.36c-.212 0-.318 0-.407-.018a.94.94 0 0 1-.718-.757c-.018-.093-.018-.205-.018-.43ZM8.046 1.333c-1.43 0-2.767.397-3.76 1.218-1.006.832-1.62 2.07-1.62 3.648 0 .879.168 1.534.456 2.068.282.524.662.895 1.007 1.218l.098.092c.323.3.632.59.893.972.26.381.475.859.603 1.537a.505.505 0 0 0 .594.415.528.528 0 0 0 .395-.622c-.324-1.703-1.135-2.459-1.809-3.086v-.001a48.13 48.13 0 0 1-.102-.095c-.34-.32-.608-.591-.802-.95-.188-.35-.325-.82-.325-1.548 0-1.26.477-2.19 1.236-2.818.051-.042.104-.083.158-.123.761-.56 1.798-.867 2.978-.867.143 0 .284.005.423.015 2.293.171 3.95 1.73 3.95 3.793 0 .729-.138 1.198-.326 1.547-.194.36-.461.632-.802.95l-.078.073-.024.024c-.674.627-1.485 1.383-1.809 3.086a.528.528 0 0 0 .395.622c.276.058.54-.13.594-.415.128-.678.342-1.156.603-1.537.26-.383.57-.671.893-.972l.098-.092c.345-.323.725-.694 1.007-1.218.288-.534.456-1.19.456-2.068 0-2.953-2.504-4.865-5.38-4.865Z" fill="#1F2937"/><path d="M6.357 4.037a.488.488 0 0 0-.713.047 5.808 5.808 0 0 0-1.13 2.159.533.533 0 0 0 .343.654.5.5 0 0 0 .625-.36 4.722 4.722 0 0 1 .92-1.756.547.547 0 0 0-.045-.744Z" fill="#1F2937"/></svg>