<svg xmlns="http://www.w3.org/2000/svg" width="48" height="48" fill="none"><path fill="#FFDF6F" d="M13.585 5.793c-2.707 1.969-4.82 4.816-5.169 8.301C4.81 16.297 2.4 20.245 2.4 24.753c0 3.855 1.405 7.006 4.591 9.647.92.764 2.072 1.38 3.36 1.875.259-.618.603-1.072.779-1.293.487-.611 1.193-1.275 1.808-1.853l6.51-6.128c.703-.663 1.465-1.381 2.15-1.87.586-.42 2.357-1.604 4.502-.736 2.296.93 2.583 3.17 2.642 3.915.063.795-.002 1.777-.064 2.66.843 0 1.735.008 2.457.1.626.082 2.765.393 3.715 2.49.658 1.45.303 2.721-.143 3.574 2.456-.588 4.708-1.455 6.28-2.716 1.6-1.282 2.806-2.577 3.578-4.19.772-1.61 1.035-3.379 1.035-5.475 0-6.32-4.401-9.586-8.02-10.365-.269-3.022-1.362-5.827-3.37-7.983C31.85 3.87 28.384 2.4 24 2.4c-3.619 0-7.454 1.241-10.415 3.393Z"/><path fill="url(#a)" fill-opacity=".3" d="M13.585 5.793c-2.707 1.969-4.82 4.816-5.169 8.301C4.81 16.297 2.4 20.245 2.4 24.753c0 3.855 1.405 7.006 4.591 9.647.92.764 2.072 1.38 3.36 1.875.259-.618.603-1.072.779-1.293.487-.611 1.193-1.275 1.808-1.853l6.51-6.128c.703-.663 1.465-1.381 2.15-1.87.586-.42 2.357-1.604 4.502-.736 2.296.93 2.583 3.17 2.642 3.915.063.795-.002 1.777-.064 2.66.843 0 1.735.008 2.457.1.626.082 2.765.393 3.715 2.49.658 1.45.303 2.721-.143 3.574 2.456-.588 4.708-1.455 6.28-2.716 1.6-1.282 2.806-2.577 3.578-4.19.772-1.61 1.035-3.379 1.035-5.475 0-6.32-4.401-9.586-8.02-10.365-.269-3.022-1.362-5.827-3.37-7.983C31.85 3.87 28.384 2.4 24 2.4c-3.619 0-7.454 1.241-10.415 3.393Z"/><path fill="#FFDF6F" d="m25.14 32.356.093-1.339c.15-2.141.224-3.212-.434-3.479-.659-.266-1.476.503-3.112 2.043l-6.26 5.893c-1.453 1.368-2.18 2.052-1.912 2.629.266.576 1.31.576 3.396.576h1.028c1.091 0 1.637 0 1.946.32.308.32.24.814.105 1.804l-.142 1.039c-.31 2.268-.465 3.402.198 3.698.663.296 1.547-.512 3.315-2.128l6.368-5.82c1.502-1.373 2.253-2.06 1.989-2.643-.265-.583-1.326-.583-3.45-.583h-1.065c-1.033 0-1.55 0-1.855-.298-.307-.299-.274-.77-.208-1.712Z"/><path fill="url(#b)" fill-opacity=".3" d="m25.14 32.356.093-1.339c.15-2.141.224-3.212-.434-3.479-.659-.266-1.476.503-3.112 2.043l-6.26 5.893c-1.453 1.368-2.18 2.052-1.912 2.629.266.576 1.31.576 3.396.576h1.028c1.091 0 1.637 0 1.946.32.308.32.24.814.105 1.804l-.142 1.039c-.31 2.268-.465 3.402.198 3.698.663.296 1.547-.512 3.315-2.128l6.368-5.82c1.502-1.373 2.253-2.06 1.989-2.643-.265-.583-1.326-.583-3.45-.583h-1.065c-1.033 0-1.55 0-1.855-.298-.307-.299-.274-.77-.208-1.712Z"/><defs><linearGradient id="a" x1="24" x2="24" y1="2.4" y2="45.6" gradientUnits="userSpaceOnUse"><stop stop-color="#fff"/><stop offset="1" stop-color="#F8C456"/></linearGradient><linearGradient id="b" x1="24" x2="24" y1="2.4" y2="45.6" gradientUnits="userSpaceOnUse"><stop stop-color="#fff"/><stop offset="1" stop-color="#F8C456"/></linearGradient></defs></svg>
