<svg xmlns="http://www.w3.org/2000/svg" width="48" height="48" fill="none"><path fill="#FFDF6F" d="M32.568 30.649c0 4.365-3.836 7.904-8.568 7.904-4.732 0-8.568-3.54-8.568-7.904 0-2.938 1.514-5.875 2.742-7.774.625-.966.938-1.449 1.53-1.494.593-.046.993.402 1.792 1.3A56.575 56.575 0 0 1 25 27.013c.556.765.834 1.147 1.188 1.157.355.01.645-.347 1.224-1.06l1.146-1.409c.38-.468.57-.702.887-.72.316-.02.506.165.887.534.945.918 2.236 2.629 2.236 5.134Z"/><path fill="url(#a)" fill-opacity=".3" d="M32.568 30.649c0 4.365-3.836 7.904-8.568 7.904-4.732 0-8.568-3.54-8.568-7.904 0-2.938 1.514-5.875 2.742-7.774.625-.966.938-1.449 1.53-1.494.593-.046.993.402 1.792 1.3A56.575 56.575 0 0 1 25 27.013c.556.765.834 1.147 1.188 1.157.355.01.645-.347 1.224-1.06l1.146-1.409c.38-.468.57-.702.887-.72.316-.02.506.165.887.534.945.918 2.236 2.629 2.236 5.134Z"/><path fill="#FFDF6F" fill-rule="evenodd" d="M18.339.001c-1.066-.025-1.886.427-2.563 1.045-.577.526-1.152 1.27-1.75 2.046l-.074.095C10.283 7.936 4.8 16.868 4.8 27.974 4.8 39.034 13.396 48 24 48s19.2-8.966 19.2-20.026c0-7.332-3.242-13.9-5.723-17.663l-.043-.065c-.202-.306-.452-.686-.713-.971-.326-.355-.905-.827-1.757-.79-.87.038-1.412.582-1.7.956-.237.31-.46.718-.644 1.054l-1.79 3.267a51.6 51.6 0 0 1-.42.757 48.644 48.644 0 0 1-.498-.702l-7.257-10.32c-.611-.871-1.184-1.686-1.753-2.267C20.252.565 19.437.027 18.34 0Zm-1.824 5.34c.7-.906 1.095-1.407 1.428-1.711.233-.214.297-.201.316-.197h.005a.09.09 0 0 1 .052.013c.036.02.126.076.283.237.352.36.765.938 1.471 1.942l7.246 10.305c.399.568.8 1.138 1.186 1.546.427.45 1.125 1.016 2.122.957.997-.06 1.63-.704 2.004-1.201.34-.451.676-1.066 1.01-1.677l1.495-2.726c2.222 3.535 4.775 9.13 4.775 15.145 0 9.164-7.122 16.593-15.908 16.593S8.09 37.137 8.09 27.974c0-9.956 4.945-18.13 8.424-22.633Z" clip-rule="evenodd"/><path fill="url(#b)" fill-opacity=".3" fill-rule="evenodd" d="M18.339.001c-1.066-.025-1.886.427-2.563 1.045-.577.526-1.152 1.27-1.75 2.046l-.074.095C10.283 7.936 4.8 16.868 4.8 27.974 4.8 39.034 13.396 48 24 48s19.2-8.966 19.2-20.026c0-7.332-3.242-13.9-5.723-17.663l-.043-.065c-.202-.306-.452-.686-.713-.971-.326-.355-.905-.827-1.757-.79-.87.038-1.412.582-1.7.956-.237.31-.46.718-.644 1.054l-1.79 3.267a51.6 51.6 0 0 1-.42.757 48.644 48.644 0 0 1-.498-.702l-7.257-10.32c-.611-.871-1.184-1.686-1.753-2.267C20.252.565 19.437.027 18.34 0Zm-1.824 5.34c.7-.906 1.095-1.407 1.428-1.711.233-.214.297-.201.316-.197h.005a.09.09 0 0 1 .052.013c.036.02.126.076.283.237.352.36.765.938 1.471 1.942l7.246 10.305c.399.568.8 1.138 1.186 1.546.427.45 1.125 1.016 2.122.957.997-.06 1.63-.704 2.004-1.201.34-.451.676-1.066 1.01-1.677l1.495-2.726c2.222 3.535 4.775 9.13 4.775 15.145 0 9.164-7.122 16.593-15.908 16.593S8.09 37.137 8.09 27.974c0-9.956 4.945-18.13 8.424-22.633Z" clip-rule="evenodd"/><defs><linearGradient id="a" x1="24" x2="24" y1="0" y2="48" gradientUnits="userSpaceOnUse"><stop stop-color="#fff"/><stop offset="1" stop-color="#F8C456"/></linearGradient><linearGradient id="b" x1="24" x2="24" y1="0" y2="48" gradientUnits="userSpaceOnUse"><stop stop-color="#fff"/><stop offset="1" stop-color="#F8C456"/></linearGradient></defs></svg>