<svg width="40" height="40" viewBox="0 0 40 40" fill="none" xmlns="http://www.w3.org/2000/svg"><path fill-rule="evenodd" clip-rule="evenodd" d="M10.66 2.51c.55.54.55 1.42 0 1.96a11.51 11.51 0 0 0-2.89 4.9 1.38 1.38 0 0 1-2.66-.78c.68-2.32 1.94-4.4 3.6-6.07a1.38 1.38 0 0 1 1.95 0ZM29.33 2.51a1.38 1.38 0 0 0 0 1.96 11.51 11.51 0 0 1 2.89 4.9 1.38 1.38 0 0 0 2.66-.78 14.28 14.28 0 0 0-3.6-6.07 1.38 1.38 0 0 0-1.95 0ZM20 2A11.54 11.54 0 0 0 8.46 13.54v3.16c0 1-.52 1.92-1.37 2.45l-2.46 1.51a5.51 5.51 0 0 0 1.13 9.93l1.69.57a39.34 39.34 0 0 0 5.2 1.37c.27.58.69 1.36 1.28 2.15C15.09 36.23 17.07 38 20 38s4.9-1.77 6.07-3.32c.6-.79 1.01-1.57 1.28-2.15l.01-.01c1.75-.34 3.49-.79 5.2-1.36l1.68-.57a5.51 5.51 0 0 0 1.13-9.93l-2.46-1.51a2.88 2.88 0 0 1-1.37-2.45v-3.16C31.54 7.17 26.37 2 20 2Zm3.85 31.02c-2.56.25-5.14.25-7.7 0 .91 1.22 2.17 2.21 3.85 2.21 1.68 0 2.94-1 3.85-2.2ZM11.23 13.54a8.77 8.77 0 0 1 17.54 0v3.16a5.64 5.64 0 0 0 2.69 4.8l2.46 1.52a2.75 2.75 0 0 1-.56 4.94l-1.7.57a36.58 36.58 0 0 1-23.33 0l-1.69-.57a2.75 2.75 0 0 1-.56-4.94l2.46-1.52a5.64 5.64 0 0 0 2.69-4.8v-3.16Z" fill="#4B5563"/></svg>