<svg xmlns="http://www.w3.org/2000/svg" width="32" height="32" fill="currentColor">
  <path fill="currentColor" fill-rule=" evenodd"
    d=" M14.06 2.092a4.087 4.087 0 0 1 3.88 0c.744.4 1.253 1.121 1.693 1.899.447.789.936 1.858 1.545 3.187l.024.054c.342.746.42.889.51.99.117.134.264.24.428.311.123.053.284.084 1.099.179l.242.028c1.374.159 2.48.287 3.324.455.83.165 1.631.406 2.227.936a4.089 4.089 0 0 1 1.274 3.924c-.17.78-.677 1.445-1.251 2.067-.584.631-1.403 1.385-2.421 2.322l-.041.037c-.632.581-.75.707-.819.826-.105.18-.161.386-.163.594-.001.139.035.306.281 1.129l.06.197c.483 1.62.871 2.918 1.074 3.934.199.997.285 2-.123 2.872a4.088 4.088 0 0 1-2.59 2.2c-.926.262-1.902.015-2.854-.342-.97-.364-2.188-.958-3.708-1.697l-.475-.232c-.796-.387-.957-.45-1.103-.47a1.2 1.2 0 0 0-.334.002c-.146.02-.307.085-1.099.479l-.42.208c-1.536.763-2.767 1.374-3.747 1.75-.96.37-1.946.626-2.883.362a4.088 4.088 0 0 1-2.575-2.164c-.422-.878-.338-1.894-.14-2.904.202-1.03.592-2.348 1.08-3.992l.06-.204c.243-.822.279-.99.277-1.128a1.203 1.203 0 0 0-.163-.59c-.07-.12-.187-.245-.818-.826l-.04-.038c-1.02-.938-1.84-1.693-2.425-2.326-.576-.622-1.083-1.289-1.253-2.07a4.089 4.089 0 0 1 1.273-3.917c.596-.532 1.399-.773 2.23-.939.844-.168 1.952-.296 3.328-.456l.238-.027c.814-.095.975-.126 1.098-.179.164-.07.31-.177.429-.311.088-.101.167-.244.509-.99l.024-.054c.609-1.329 1.099-2.398 1.545-3.187.44-.778.95-1.498 1.692-1.9Zm2.74 2.116c-.5-.269-1.1-.269-1.599 0-.108.058-.338.254-.74.967-.39.689-.838 1.663-1.477 3.059l-.054.117c-.256.562-.482 1.056-.834 1.457a3.606 3.606 0 0 1-1.286.935c-.49.21-1.03.272-1.644.343l-.127.014-.183.022c-1.444.167-2.454.285-3.191.432-.763.152-1.012.297-1.098.374a1.684 1.684 0 0 0-.524 1.613c.024.112.14.377.668.948.51.552 1.258 1.241 2.328 2.226l.1.091c.474.436.891.819 1.168 1.294.314.539.482 1.15.49 1.773.006.55-.155 1.092-.339 1.71l-.038.13-.042.139c-.51 1.722-.866 2.931-1.044 3.836-.184.94-.112 1.274-.052 1.4.21.435.596.76 1.06.89.134.038.476.052 1.37-.291.86-.331 1.99-.89 3.598-1.69l.36-.178.124-.062c.598-.298 1.125-.56 1.702-.644.332-.047.669-.049 1.001-.003.578.078 1.107.337 1.707.63l.124.06.416.203c1.593.774 2.71 1.317 3.561 1.637.883.331 1.221.317 1.354.28.47-.134.859-.464 1.066-.907.058-.124.127-.456-.057-1.381-.178-.892-.532-2.082-1.04-3.78l-.04-.133a45.646 45.646 0 0 0-.038-.13c-.186-.618-.349-1.16-.344-1.71a3.61 3.61 0 0 1 .49-1.782c.277-.475.694-.858 1.17-1.294l.099-.092c1.068-.983 1.814-1.67 2.324-2.222.527-.57.643-.835.668-.947a1.684 1.684 0 0 0-.525-1.615c-.085-.076-.335-.222-1.096-.373-.737-.147-1.745-.264-3.187-.432l-.187-.021-.128-.015c-.614-.07-1.154-.133-1.643-.343a3.606 3.606 0 0 1-1.287-.935c-.352-.4-.577-.895-.834-1.457l-.053-.117c-.64-1.396-1.087-2.37-1.477-3.06-.403-.712-.633-.908-.74-.966Z"
    clip-rule=" evenodd" />
</svg>
