<svg xmlns="http://www.w3.org/2000/svg" width="31" height="21" fill="none"><path fill="url(#a)" d="M29.16 1.8C28.08.52 26.08 0 22.26 0H8.4C4.5 0 2.46.56 1.4 1.92.33 3.25.33 5.2.33 7.92v5.16C.33 18.33 1.58 21 8.4 21h13.86c3.31 0 5.15-.46 6.34-1.6 1.21-1.15 1.73-3.04 1.73-6.32V7.92c0-2.86-.08-4.83-1.17-6.12Zm-9.57 9.41L13.3 14.5a.97.97 0 0 1-1.42-.86V7.11a.97.97 0 0 1 1.41-.85l6.3 3.25a.96.96 0 0 1 0 1.7Z"/><defs><linearGradient id="a" x1=".33" x2="31.45" y1="14.23" y2="8.93" gradientUnits="userSpaceOnUse"><stop stop-color="#FFDF6F"/><stop offset=".62" stop-color="#F8C455"/><stop offset="1" stop-color="#ECA572"/></linearGradient></defs></svg>