<svg width="48" height="48" viewBox="0 0 48 48" fill="none" xmlns="http://www.w3.org/2000/svg">
  <path
    d="M21.5577 21.4454L22.5772 17.6407L27.6977 19.0127C28.7483 19.2942 29.3718 20.3742 29.0903 21.4248C28.8088 22.4754 27.7289 23.0989 26.6782 22.8174L21.5577 21.4454Z"
    fill="url(#paint0_linear_2777_1921)" />
  <path
    d="M19.5881 28.7962L20.626 24.9227L26.7746 26.5702C27.8442 26.8568 28.479 27.9563 28.1924 29.0259L28.1507 29.1817C27.8871 30.1653 26.8761 30.749 25.8925 30.4854L19.5881 28.7962Z"
    fill="url(#paint1_linear_2777_1921)" />
  <path fill-rule="evenodd" clip-rule="evenodd"
    d="M2.40002 23.9999C2.40002 12.0706 12.0707 2.3999 24 2.3999C35.9294 2.3999 45.6 12.0706 45.6 23.9999C45.6 35.9293 35.9294 45.5999 24 45.5999C12.0707 45.5999 2.40002 35.9293 2.40002 23.9999ZM25.6864 14.0372C25.9437 13.077 25.3738 12.09 24.4136 11.8327C23.4533 11.5754 22.4663 12.1453 22.209 13.1055L22.0316 13.7675L19.5202 13.0946C18.56 12.8373 17.573 13.4071 17.3157 14.3674C17.0584 15.3276 17.6283 16.3146 18.5885 16.5719L19.0999 16.7089L16.1108 27.8644L15.5994 27.7274C14.6391 27.4701 13.6521 28.04 13.3948 29.0002C13.1375 29.9604 13.7074 30.9474 14.6676 31.2047L17.179 31.8777L17.0017 32.5397C16.7444 33.4999 17.3142 34.4869 18.2745 34.7442C19.2347 35.0015 20.2217 34.4317 20.479 33.4714L20.6564 32.8094L21.4291 33.0165L21.2517 33.6785C20.9944 34.6387 21.5643 35.6257 22.5245 35.883C23.4848 36.1403 24.4718 35.5705 24.7291 34.6102L24.9065 33.9482L24.9608 33.9628C27.8648 34.7409 30.8498 33.0175 31.628 30.1135L31.6697 29.9577C32.1285 28.2457 31.7429 26.5064 30.7682 25.1819C31.6151 24.4725 32.26 23.5047 32.5676 22.3565C33.2599 19.7729 32.0169 17.1266 29.7272 15.9568L29.9364 15.1761C30.1937 14.2158 29.6239 13.2288 28.6636 12.9715C27.7034 12.7142 26.7164 13.2841 26.4591 14.2443L26.2817 14.9063L25.509 14.6992L25.6864 14.0372Z"
    fill="url(#paint2_linear_2777_1921)" />
  <defs>
    <linearGradient id="paint0_linear_2777_1921" x1="-23.25" y1="69.8999" x2="96.9" y2="-50.2501"
      gradientUnits="userSpaceOnUse">
      <stop offset="0.324094" stop-color="#FFDE6E" />
      <stop offset="1" stop-color="#F8C455" />
    </linearGradient>
    <linearGradient id="paint1_linear_2777_1921" x1="-23.25" y1="69.8999" x2="96.9" y2="-50.2501"
      gradientUnits="userSpaceOnUse">
      <stop offset="0.324094" stop-color="#FFDE6E" />
      <stop offset="1" stop-color="#F8C455" />
    </linearGradient>
    <linearGradient id="paint2_linear_2777_1921" x1="-23.25" y1="69.8999" x2="96.9" y2="-50.2501"
      gradientUnits="userSpaceOnUse">
      <stop offset="0.324094" stop-color="#FFDE6E" />
      <stop offset="1" stop-color="#F8C455" />
    </linearGradient>
  </defs>
</svg>