<svg width="20" height="20" viewBox="0 0 20 20" fill="none" xmlns="http://www.w3.org/2000/svg"><path fill-rule="evenodd" clip-rule="evenodd" d="M10 2.5a7.5 7.5 0 1 0 0 15 7.5 7.5 0 0 0 0-15ZM1 10a9 9 0 1 1 18 0 9 9 0 0 1-18 0Z" fill="#4B5563"/><path fill-rule="evenodd" clip-rule="evenodd" d="M10.17 4.93c.4.1.64.52.53.92l-.07.27.32.1.07-.28a.75.75 0 0 1 1.45.38l-.08.33a2.32 2.32 0 0 1 .43 3.84c.4.55.57 1.28.38 2l-.02.06a2.27 2.27 0 0 1-2.78 1.6h-.02l-.08.27a.75.75 0 0 1-1.45-.39l.08-.27-.32-.09-.08.28a.75.75 0 1 1-1.45-.4l.08-.27L6.1 13a.75.75 0 1 1 .39-1.45l.21.06 1.25-4.65-.21-.05a.75.75 0 0 1 .38-1.45l1.05.28.07-.28c.11-.4.52-.64.92-.53Zm-.76 2.42-.43 1.59 2.14.57a.82.82 0 1 0 .42-1.59l-2.13-.57Zm-.82 3.03L8.16 12l2.63.7c.4.11.83-.13.94-.54l.02-.07a.84.84 0 0 0-.6-1.02l-2.56-.69Z" fill="#4B5563"/></svg>