<svg width="32" height="32" viewBox="0 0 32 32" fill="none" xmlns="http://www.w3.org/2000/svg">
<path d="M19.0937 3.19922L12.9063 3.19922C10.8586 3.19919 9.19731 3.19917 7.88824 3.36601C6.52513 3.53975 5.36 3.91348 4.4317 4.79349C3.50258 5.67428 3.10724 6.78107 2.9236 8.07593C2.74744 9.31801 2.74747 10.8938 2.7475 12.834L2.7475 19.3272C2.7475 19.9836 3.30709 20.5061 3.98511 20.5061C4.66313 20.5061 5.22272 19.9836 5.22272 19.3272V12.9204C5.22272 10.8734 5.22537 9.45744 5.37653 8.39163C5.52278 7.3604 5.78722 6.83489 6.17782 6.46462C6.56923 6.09357 7.12595 5.84184 8.21659 5.70284C9.34232 5.55936 10.8374 5.55688 12.9962 5.55688H19.0037C21.1625 5.55688 22.6576 5.55936 23.7833 5.70284C24.874 5.84184 25.4307 6.09357 25.8221 6.46462C26.2127 6.83489 26.4771 7.3604 26.6234 8.39163C26.7746 9.45744 26.7772 10.8734 26.7772 12.9204V19.3272C26.7772 19.9836 27.3368 20.5061 28.0148 20.5061C28.6928 20.5061 29.2524 19.9836 29.2524 19.3272V12.8339C29.2525 10.8938 29.2525 9.31801 29.0763 8.07593C28.8927 6.78107 28.4973 5.67428 27.5682 4.79349C26.6399 3.91348 25.4748 3.53975 24.1117 3.36601C22.8026 3.19917 21.1413 3.19919 19.0937 3.19922Z" fill="#9BA2AE"/>
<path fill-rule="evenodd" clip-rule="evenodd" d="M3.49642 22.0514C0.776666 22.0514 -0.907394 24.9323 0.519009 27.186C1.15383 28.1891 2.28221 28.7992 3.49642 28.7992H28.5036C29.7178 28.7992 30.8462 28.1891 31.481 27.186C32.9074 24.9323 31.2233 22.0514 28.5036 22.0514H3.49642ZM2.62931 25.9331C2.22098 25.288 2.69764 24.4487 3.49642 24.4487H28.5036C29.3024 24.4487 29.779 25.288 29.3707 25.9331C29.187 26.2233 28.859 26.4019 28.5036 26.4019H3.49642C3.14105 26.4019 2.81295 26.2233 2.62931 25.9331Z" fill="#9BA2AE"/>
</svg>
