<svg width="48" height="48" viewBox="0 0 48 48" fill="none" xmlns="http://www.w3.org/2000/svg">
<path fill-rule="evenodd" clip-rule="evenodd" d="M24.0015 3.59998C22.2256 3.59998 20.6261 4.31989 18.3334 5.35176L18.0393 5.48409C15.9718 6.41338 14.1618 7.24533 12.0198 8.22994L11.0159 8.69126C9.08313 9.57926 7.46617 10.3221 6.21493 11.1449C4.87095 12.0287 3.85281 13.0619 3.16196 14.5679C1.84192 17.4455 2.46343 19.7051 3.32298 22.8303L3.39607 23.0962C6.44574 34.2054 14.4201 41.3349 19.2121 44.7713L19.3763 44.8891C20.8358 45.9377 22.0402 46.803 24.0004 46.8002C25.9605 46.7975 27.1638 45.9279 28.6219 44.8742L28.7864 44.7554C33.5697 41.3052 41.5378 34.159 44.5966 23.0973L44.6697 22.8332C45.5343 19.7127 46.1594 17.4563 44.8402 14.5733C43.5192 11.6864 40.9321 10.5002 37.3085 8.83867L35.9837 8.23009C33.8414 7.24542 32.0314 6.41343 29.9638 5.48409L29.6697 5.35176C27.377 4.3199 25.7775 3.59998 24.0015 3.59998ZM32.6251 20.2994C33.2323 19.5123 33.0865 18.382 32.2994 17.7748C31.5122 17.1676 30.3819 17.3134 29.7747 18.1005L21.8057 28.4307L18.1096 24.5106C17.4276 23.7873 16.2884 23.7538 15.5651 24.4358C14.8418 25.1178 14.8083 26.257 15.4902 26.9803L19.1465 30.8582C19.4538 31.1845 19.8012 31.5533 20.1378 31.8222C20.5347 32.1393 21.1607 32.5215 22.0061 32.4797C22.8515 32.4378 23.4367 31.9957 23.8003 31.6409C24.1087 31.3401 24.418 30.9387 24.6916 30.5837L32.6251 20.2994Z" fill="#FFDF6F"/>
<path fill-rule="evenodd" clip-rule="evenodd" d="M24.0015 3.59998C22.2256 3.59998 20.6261 4.31989 18.3334 5.35176L18.0393 5.48409C15.9718 6.41338 14.1618 7.24533 12.0198 8.22994L11.0159 8.69126C9.08313 9.57926 7.46617 10.3221 6.21493 11.1449C4.87095 12.0287 3.85281 13.0619 3.16196 14.5679C1.84192 17.4455 2.46343 19.7051 3.32298 22.8303L3.39607 23.0962C6.44574 34.2054 14.4201 41.3349 19.2121 44.7713L19.3763 44.8891C20.8358 45.9377 22.0402 46.803 24.0004 46.8002C25.9605 46.7975 27.1638 45.9279 28.6219 44.8742L28.7864 44.7554C33.5697 41.3052 41.5378 34.159 44.5966 23.0973L44.6697 22.8332C45.5343 19.7127 46.1594 17.4563 44.8402 14.5733C43.5192 11.6864 40.9321 10.5002 37.3085 8.83867L35.9837 8.23009C33.8414 7.24542 32.0314 6.41343 29.9638 5.48409L29.6697 5.35176C27.377 4.3199 25.7775 3.59998 24.0015 3.59998ZM32.6251 20.2994C33.2323 19.5123 33.0865 18.382 32.2994 17.7748C31.5122 17.1676 30.3819 17.3134 29.7747 18.1005L21.8057 28.4307L18.1096 24.5106C17.4276 23.7873 16.2884 23.7538 15.5651 24.4358C14.8418 25.1178 14.8083 26.257 15.4902 26.9803L19.1465 30.8582C19.4538 31.1845 19.8012 31.5533 20.1378 31.8222C20.5347 32.1393 21.1607 32.5215 22.0061 32.4797C22.8515 32.4378 23.4367 31.9957 23.8003 31.6409C24.1087 31.3401 24.418 30.9387 24.6916 30.5837L32.6251 20.2994Z" fill="url(#paint0_linear_3016_937)" fill-opacity="0.3"/>
<defs>
<linearGradient id="paint0_linear_3016_937" x1="23.9999" y1="3.59998" x2="23.9999" y2="46.8002" gradientUnits="userSpaceOnUse">
<stop stop-color="white"/>
<stop offset="1" stop-color="#F8C456"/>
</linearGradient>
</defs>
</svg>
