<svg width="48" height="48" viewBox="0 0 48 48" fill="none" xmlns="http://www.w3.org/2000/svg">
<path fill-rule="evenodd" clip-rule="evenodd" d="M36.7802 5.36985C35.9328 4.98704 35.0684 4.85286 34.1466 4.81357C33.2762 4.77647 32.2303 4.82188 30.9951 4.87552L30.9169 4.87891C25.4654 5.11548 18.0658 5.63447 11.9959 6.7854C8.97808 7.35763 6.15934 8.10898 4.0516 9.12502C2.07991 10.0755 0 11.6243 0 14.0739L3.25716e-05 27.242C-9.83017e-06 30.5015 -4.41624e-05 33.1288 0.286882 35.1953C0.584782 37.3407 1.22208 39.1471 2.70369 40.5819C4.18532 42.0167 6.05085 42.6338 8.2665 42.9223C10.4006 43.2001 13.114 43.2001 16.4803 43.2H32.1608C35.2212 43.2001 37.6885 43.2001 39.644 42.9673C41.6696 42.7261 43.3953 42.2117 44.8271 41.0058C45.1501 40.7337 45.4532 40.4402 45.7341 40.1274C46.8893 38.8412 47.4299 37.3101 47.7009 35.5295H37.5678C33.1496 35.5295 29.5679 32.061 29.5679 27.7824C29.5679 23.5037 33.1496 20.0352 37.5679 20.0352H47.9277C47.4359 16.2557 44.4881 13.2168 40.6811 12.4651C40.6728 11.8639 40.6539 11.3232 40.6109 10.8407C40.5302 9.93403 40.3554 9.08589 39.9187 8.27602C39.2446 7.02599 38.0999 5.96604 36.7802 5.36985ZM31.0822 8.45092C32.4164 8.39302 33.2974 8.35643 33.9842 8.3857C34.6379 8.41356 34.9718 8.49843 35.2192 8.6102C35.804 8.87439 36.3471 9.37727 36.6458 9.93119C36.7683 10.1583 36.8732 10.4842 36.9323 11.1479C36.9613 11.4736 36.9769 11.8444 36.9854 12.2861H5.78056C7.43988 11.5024 9.84076 10.8375 12.7054 10.2944C18.4975 9.1961 25.6746 8.68558 31.0822 8.45092Z" fill="#FFDF6F"/>
<path fill-rule="evenodd" clip-rule="evenodd" d="M36.7802 5.36985C35.9328 4.98704 35.0684 4.85286 34.1466 4.81357C33.2762 4.77647 32.2303 4.82188 30.9951 4.87552L30.9169 4.87891C25.4654 5.11548 18.0658 5.63447 11.9959 6.7854C8.97808 7.35763 6.15934 8.10898 4.0516 9.12502C2.07991 10.0755 0 11.6243 0 14.0739L3.25716e-05 27.242C-9.83017e-06 30.5015 -4.41624e-05 33.1288 0.286882 35.1953C0.584782 37.3407 1.22208 39.1471 2.70369 40.5819C4.18532 42.0167 6.05085 42.6338 8.2665 42.9223C10.4006 43.2001 13.114 43.2001 16.4803 43.2H32.1608C35.2212 43.2001 37.6885 43.2001 39.644 42.9673C41.6696 42.7261 43.3953 42.2117 44.8271 41.0058C45.1501 40.7337 45.4532 40.4402 45.7341 40.1274C46.8893 38.8412 47.4299 37.3101 47.7009 35.5295H37.5678C33.1496 35.5295 29.5679 32.061 29.5679 27.7824C29.5679 23.5037 33.1496 20.0352 37.5679 20.0352H47.9277C47.4359 16.2557 44.4881 13.2168 40.6811 12.4651C40.6728 11.8639 40.6539 11.3232 40.6109 10.8407C40.5302 9.93403 40.3554 9.08589 39.9187 8.27602C39.2446 7.02599 38.0999 5.96604 36.7802 5.36985ZM31.0822 8.45092C32.4164 8.39302 33.2974 8.35643 33.9842 8.3857C34.6379 8.41356 34.9718 8.49843 35.2192 8.6102C35.804 8.87439 36.3471 9.37727 36.6458 9.93119C36.7683 10.1583 36.8732 10.4842 36.9323 11.1479C36.9613 11.4736 36.9769 11.8444 36.9854 12.2861H5.78056C7.43988 11.5024 9.84076 10.8375 12.7054 10.2944C18.4975 9.1961 25.6746 8.68558 31.0822 8.45092Z" fill="url(#paint0_linear_3016_4201)" fill-opacity="0.3"/>
<path fill-rule="evenodd" clip-rule="evenodd" d="M48 23.6108H37.5679C35.1888 23.6108 33.2602 25.4785 33.2602 27.7824C33.2602 30.0862 35.1888 31.9539 37.5678 31.9539H47.9683C48 30.7319 48 29.3712 48 27.8615V23.6108ZM38.7704 30.1661C40.1298 30.1661 41.2319 29.0989 41.2319 27.7824C41.2319 26.4659 40.1298 25.3986 38.7704 25.3986C37.4109 25.3986 36.3088 26.4659 36.3088 27.7824C36.3088 29.0989 37.4109 30.1661 38.7704 30.1661Z" fill="#FFDF6F"/>
<path fill-rule="evenodd" clip-rule="evenodd" d="M48 23.6108H37.5679C35.1888 23.6108 33.2602 25.4785 33.2602 27.7824C33.2602 30.0862 35.1888 31.9539 37.5678 31.9539H47.9683C48 30.7319 48 29.3712 48 27.8615V23.6108ZM38.7704 30.1661C40.1298 30.1661 41.2319 29.0989 41.2319 27.7824C41.2319 26.4659 40.1298 25.3986 38.7704 25.3986C37.4109 25.3986 36.3088 26.4659 36.3088 27.7824C36.3088 29.0989 37.4109 30.1661 38.7704 30.1661Z" fill="url(#paint1_linear_3016_4201)" fill-opacity="0.3"/>
<defs>
<linearGradient id="paint0_linear_3016_4201" x1="24" y1="4.80005" x2="24" y2="43.2001" gradientUnits="userSpaceOnUse">
<stop stop-color="white"/>
<stop offset="1" stop-color="#F8C456"/>
</linearGradient>
<linearGradient id="paint1_linear_3016_4201" x1="24" y1="4.80005" x2="24" y2="43.2001" gradientUnits="userSpaceOnUse">
<stop stop-color="white"/>
<stop offset="1" stop-color="#F8C456"/>
</linearGradient>
</defs>
</svg>
