<svg id="Capa_1" enable-background="new 0 0 512.009 512.009" viewBox="0 0 512.009 512.009" xmlns="http://www.w3.org/2000/svg" fill="currentColor"><g><path d="m256.004 512.009c23.562 0 47.797-25.578 66.49-70.174 9.698-23.135 17.354-49.914 22.755-79.086h-178.489c5.4 29.172 13.057 55.95 22.755 79.086 18.692 44.596 42.927 70.174 66.489 70.174z"/><path d="m136.304 362.749h-113.138c12.527 27.288 29.95 52.412 51.816 74.278 32.382 32.382 71.911 55.02 115.03 66.443-10.364-13.413-19.839-30.174-28.165-50.038-11.102-26.484-19.71-57.249-25.543-90.683z"/><path d="m375.705 149.26h113.138c-12.527-27.288-29.95-52.412-51.816-74.278-32.382-32.382-71.911-55.02-115.03-66.443 10.364 13.413 19.839 30.174 28.165 50.038 11.102 26.484 19.71 57.249 25.543 90.683z"/><path d="m384.6 256.004c0 26.301-1.531 52.073-4.494 76.745h120.26c7.667-24.515 11.643-50.324 11.643-76.745s-3.975-52.229-11.643-76.745h-120.26c2.963 24.673 4.494 50.445 4.494 76.745z"/><path d="m350.163 453.432c-8.326 19.864-17.801 36.624-28.165 50.038 43.119-11.422 82.648-34.061 115.03-66.443 21.866-21.866 39.289-46.99 51.816-74.278h-113.139c-5.833 33.434-14.441 64.199-25.542 90.683z"/><path d="m256.004 0c-23.563 0-47.797 25.578-66.49 70.174-9.698 23.135-17.354 49.914-22.755 79.086h178.49c-5.4-29.172-13.057-55.95-22.755-79.086-18.692-44.596-42.927-70.174-66.49-70.174z"/><path d="m127.409 256.004c0-26.301 1.531-52.073 4.494-76.745h-120.26c-7.668 24.516-11.643 50.325-11.643 76.745s3.975 52.229 11.643 76.745h120.26c-2.963-24.672-4.494-50.444-4.494-76.745z"/><path d="m161.846 58.577c8.326-19.864 17.801-36.624 28.165-50.038-43.118 11.423-82.647 34.061-115.029 66.443-21.866 21.866-39.289 46.99-51.816 74.278h113.138c5.833-33.434 14.441-64.199 25.542-90.683z"/><path d="m162.11 332.749h187.789c3.097-24.528 4.701-50.324 4.701-76.745s-1.604-52.216-4.701-76.745h-187.789c-3.097 24.528-4.701 50.324-4.701 76.745s1.604 52.217 4.701 76.745z"/></g><g/><g/><g/><g/><g/><g/><g/><g/><g/><g/><g/><g/><g/><g/><g/></svg>