<svg width="40" height="40" viewBox="0 0 40 40" fill="none" xmlns="http://www.w3.org/2000/svg"><path fill-rule="evenodd" clip-rule="evenodd" d="M20.06 6.61c-.67.8-1.5 2.07-2.7 3.87l-6.27 9.46a25.91 25.91 0 0 0-1.71 2.77 2 2 0 0 0-.2.58V23.36l.06.04a2 2 0 0 0 .6.16c.7.1 1.7.1 3.25.1h.99c.69 0 1.3 0 1.82.06.55.07 1.13.22 1.64.63.17.13.32.29.45.45.42.51.57 1.1.63 1.64.06.51.06 1.13.06 1.82v.07c0 2.16 0 3.68.12 4.72a3.84 3.84 0 0 0 .25 1.08l.08.02.08-.04c.16-.1.4-.32.73-.72.67-.8 1.5-2.07 2.7-3.87l6.27-9.46c.85-1.28 1.41-2.13 1.71-2.77a2 2 0 0 0 .2-.58v-.07l-.05-.04a2 2 0 0 0-.6-.16c-.7-.1-1.72-.1-3.26-.1h-.99c-.69 0-1.3 0-1.82-.06a3.08 3.08 0 0 1-1.64-.63 3.08 3.08 0 0 1-.45-.45 3.08 3.08 0 0 1-.63-1.64c-.06-.51-.06-1.13-.06-1.82v-.07c0-2.16 0-3.68-.12-4.72a3.84 3.84 0 0 0-.25-1.08.57.57 0 0 0-.08-.02 3.85 3.85 0 0 0-.8.76Zm1.06-3.26c.35.04.68.14 1 .3.6.3.96.8 1.18 1.32.21.5.32 1.1.4 1.7.13 1.2.13 2.86.13 4.92v.08c0 .78 0 1.25.04 1.6l.06.3.03.05.08.08s.01.02.05.03c.05.02.14.04.3.06.35.04.82.04 1.6.04H27c1.41 0 2.61 0 3.52.13.93.14 1.95.47 2.5 1.5.55 1.01.26 2.05-.14 2.9-.38.82-1.05 1.82-1.83 3l-6.37 9.61A50.12 50.12 0 0 1 21.86 35c-.4.47-.8.9-1.26 1.2-.47.3-1.06.53-1.72.45a3.09 3.09 0 0 1-1-.3c-.6-.3-.96-.8-1.18-1.33a6.18 6.18 0 0 1-.4-1.7c-.13-1.2-.13-2.85-.13-4.9v-.1c0-.77 0-1.24-.04-1.58a1.44 1.44 0 0 0-.06-.3l-.02-.06a.58.58 0 0 0-.09-.08s-.01-.02-.05-.03a1.45 1.45 0 0 0-.3-.06c-.35-.04-.82-.04-1.6-.04H13c-1.41 0-2.61 0-3.52-.14-.93-.13-1.95-.46-2.5-1.48s-.26-2.06.14-2.9c.39-.83 1.05-1.83 1.83-3.01l6.37-9.61A50.16 50.16 0 0 1 18.14 5c.4-.47.8-.9 1.26-1.2a2.52 2.52 0 0 1 1.72-.45Z" fill="#4B5563"/></svg>