<svg width="16" height="16" viewBox="0 0 16 16" fill="none" xmlns="http://www.w3.org/2000/svg">
  <path fill-rule="evenodd" clip-rule="evenodd"
    d="M15.1998 8.00005C15.1998 4.0236 11.9763 0.800049 7.9998 0.800049C4.02335 0.800049 0.799805 4.0236 0.799805 8.00005C0.799805 11.9765 4.02335 15.2 7.9998 15.2C11.9763 15.2 15.1998 11.9765 15.1998 8.00005ZM13.6011 5.84481C13.8586 6.51372 13.9998 7.2404 13.9998 8.00005C13.9998 8.75043 13.8621 9.46865 13.6105 10.1308L11.8242 9.21637C12.1184 8.36396 12.1232 7.43442 11.8389 6.57945L13.6011 5.84481ZM13.0578 4.7712C12.5825 4.02812 11.9479 3.39674 11.2022 2.92519L10.3556 4.55658C10.528 4.6819 10.6927 4.82213 10.8477 4.97716C11.0137 5.1432 11.1628 5.32029 11.2948 5.50618L13.0578 4.7712ZM10.1286 2.38867C9.46702 2.13753 8.74947 2.00005 7.9998 2.00005C7.2459 2.00005 6.52448 2.13909 5.85977 2.39294L6.62375 3.99539C7.48737 3.70119 8.42906 3.70328 9.29157 4.00165L10.1286 2.38867ZM4.78722 2.93167C4.04429 3.40356 3.41218 4.03429 2.93867 4.77608L4.60676 5.49995C4.73756 5.3164 4.88515 5.14141 5.0494 4.97716C5.20902 4.81754 5.37878 4.67366 5.55668 4.54562L4.78722 2.93167ZM2.39688 5.84908L4.06097 6.57122C3.77284 7.43138 3.77782 8.36758 4.0759 9.22511L2.387 10.1251C2.13677 9.46455 1.9998 8.74829 1.9998 8.00005C1.9998 7.24201 2.14038 6.51681 2.39688 5.84908ZM2.92295 11.1993C3.39567 11.9478 4.02938 12.5846 4.77545 13.0609L5.57267 11.2184C5.38895 11.0875 5.2138 10.9398 5.0494 10.7754C4.89581 10.6218 4.7568 10.4589 4.63245 10.2883L2.92295 11.1993ZM5.84849 13.6028C6.51631 13.8594 7.24164 14 7.9998 14C8.75426 14 9.4762 13.8608 10.1413 13.6066L9.27073 11.7581C8.42068 12.047 7.49517 12.049 6.64408 11.7641L5.84849 13.6028ZM11.2138 13.0675C11.9628 12.5915 12.599 11.954 13.0736 11.2041L11.2701 10.2808C11.1443 10.4541 11.0035 10.6196 10.8477 10.7754C10.6874 10.9357 10.517 11.0801 10.3383 11.2085L11.2138 13.0675ZM9.54755 5.45614C9.70671 5.56159 9.85814 5.68468 9.99915 5.82568C10.1402 5.96669 10.2632 6.11812 10.3687 6.27729C10.4242 6.36104 10.4748 6.44701 10.5207 6.53482C10.9578 7.37232 10.9578 8.38027 10.5207 9.21777C10.3878 9.47233 10.2142 9.71185 9.99915 9.9269C9.78409 10.142 9.54458 10.3156 9.29002 10.4484C8.45252 10.8856 7.44456 10.8856 6.60707 10.4484C6.35251 10.3156 6.11299 10.142 5.89793 9.9269C5.68288 9.71185 5.50928 9.47233 5.37641 9.21777C4.93925 8.38027 4.93925 7.37232 5.37641 6.53482C5.50928 6.28026 5.68288 6.04074 5.89793 5.82568C6.11299 5.61063 6.35251 5.43703 6.60707 5.30416C7.44456 4.86701 8.45252 4.86701 9.29001 5.30416C9.37783 5.34999 9.4638 5.40065 9.54755 5.45614Z"
    fill="#1F2937" />
</svg>
