<svg width="24" height="24" fill="none" xmlns="http://www.w3.org/2000/svg"><path d="M12 3H9.197c-1.249 0-2.262 0-3.06.107-.833.112-1.544.353-2.11.92-.567.566-.808 1.277-.92 2.11C3 6.934 3 7.947 3 9.196v2.919c0 .74 0 1.26.12 1.707A3.504 3.504 0 0 0 5.596 16.3c.448.12.967.12 1.707.12h.116a.756.756 0 1 0 0-1.514c-.9 0-1.202-.006-1.431-.068a1.991 1.991 0 0 1-1.408-1.408c-.062-.228-.068-.53-.068-1.431V9.252c0-1.317.002-2.228.094-2.914.09-.665.25-1.003.49-1.242.238-.238.576-.4 1.24-.49.687-.092 1.598-.093 2.915-.093H12c1.1 0 1.992.891 1.992 1.991a.756.756 0 1 0 1.512 0A3.504 3.504 0 0 0 12 3Z" fill="#4B5563"/><path fill-rule="evenodd" clip-rule="evenodd" d="M14.803 7.58h-.11c-1.249 0-2.262 0-3.061.107-.832.112-1.543.353-2.11.92-.566.566-.807 1.277-.919 2.109-.107.799-.107 1.812-.107 3.06v1.027c0 1.249 0 2.262.107 3.06.112.833.353 1.544.92 2.11.566.567 1.277.808 2.109.92.799.107 1.812.107 3.06.107h.111c1.249 0 2.262 0 3.06-.107.833-.112 1.544-.353 2.11-.92.567-.566.808-1.277.92-2.11.107-.798.107-1.811.107-3.06v-1.026c0-1.249 0-2.262-.107-3.061-.112-.832-.353-1.543-.92-2.11-.566-.566-1.277-.807-2.11-.919-.798-.107-1.811-.107-3.06-.107Zm-2.97 1.606c.687-.092 1.598-.093 2.915-.093s2.228.001 2.914.093c.665.09 1.003.251 1.242.49.238.238.4.577.49 1.242.091.686.093 1.597.093 2.914v.916c0 1.317-.002 2.228-.094 2.914-.089.665-.25 1.003-.49 1.242-.238.238-.576.4-1.24.49-.687.091-1.598.093-2.915.093s-2.228-.002-2.914-.094c-.665-.089-1.004-.25-1.242-.49-.239-.238-.4-.576-.49-1.24-.092-.687-.093-1.598-.093-2.915v-.916c0-1.317.001-2.228.093-2.914.09-.665.251-1.004.49-1.242.238-.239.577-.4 1.242-.49Z" fill="#4B5563"/></svg>