<svg width="20" height="21" viewBox="0 0 20 21" fill="currentColor"
  xmlns="http://www.w3.org/2000/svg">
  <path
    d="M9.5484 1.54802C9.84609 1.48399 10.1539 1.48399 10.4516 1.54802C11.1138 1.69047 11.5418 2.21292 11.8774 2.76471C12.2169 3.32301 12.5741 4.1082 13.013 5.07276L13.013 5.07283L13.034 5.11898C13.3301 5.7699 13.4006 5.88912 13.4881 5.96687C13.5222 5.99716 13.5591 6.02414 13.5982 6.04743C13.6987 6.10722 13.8331 6.13783 14.5394 6.22029L14.7123 6.24047C15.7058 6.35645 16.5148 6.45088 17.1183 6.59312C17.7139 6.73349 18.3128 6.96182 18.6587 7.50476C18.8592 7.81946 18.9758 8.18086 18.9973 8.55412C19.0344 9.1981 18.6832 9.73726 18.2833 10.2033C17.8781 10.6756 17.2787 11.2308 16.5426 11.9127L16.5074 11.9453C15.9576 12.4546 15.8619 12.565 15.8156 12.6773C15.7924 12.7334 15.7764 12.7922 15.7678 12.8523C15.7506 12.9726 15.7768 13.1168 15.9908 13.8376L16.0349 13.9861L16.0349 13.9861C16.3762 15.136 16.6531 16.0685 16.7701 16.7879C16.8854 17.4965 16.8931 18.2507 16.3854 18.8175C16.2571 18.9608 16.1104 19.0863 15.9492 19.1907C15.3116 19.6034 14.5737 19.4739 13.8978 19.2448C13.2117 19.0121 12.3426 18.5862 11.2708 18.0611L10.9424 17.9002C10.271 17.5712 10.1367 17.5239 10.0119 17.5229L9.9951 17.523C9.87029 17.5249 9.73637 17.5734 9.06759 17.9077L8.77201 18.0555L8.77199 18.0555C7.68945 18.5968 6.81212 19.0354 6.11951 19.276C5.4379 19.5128 4.69217 19.6488 4.04782 19.2301C3.89518 19.1309 3.75556 19.0128 3.63227 18.8784C3.11181 18.3113 3.11652 17.5482 3.23087 16.8314C3.34707 16.103 3.62524 15.1573 3.96848 13.9904L4.01356 13.8371C4.22544 13.1167 4.25124 12.9727 4.23381 12.8525C4.22515 12.7928 4.20913 12.7344 4.18613 12.6787C4.13981 12.5666 4.04423 12.4563 3.49512 11.9477L3.45991 11.915C2.72271 11.2321 2.12245 10.6761 1.71673 10.2031C1.31634 9.73635 0.964855 9.19631 1.00282 8.55136C1.02467 8.18 1.14069 7.82047 1.33978 7.50709C1.68556 6.96285 2.28516 6.73397 2.88156 6.59332C3.48589 6.45079 4.29609 6.35622 5.29114 6.24007L5.46057 6.22029C6.16688 6.13783 6.30126 6.10722 6.40174 6.04743C6.44089 6.02414 6.47776 5.99716 6.51185 5.96687C6.59938 5.88912 6.66981 5.7699 6.96596 5.11898L6.98695 5.07285L6.98696 5.07283C7.4258 4.10823 7.78303 3.32302 8.12259 2.76471C8.45818 2.21292 8.88613 1.69047 9.5484 1.54802Z"
    fill="currentColor" />
</svg>
