<svg xmlns="http://www.w3.org/2000/svg" width="48" height="48" fill="none"><path fill="#FFDF6F" fill-rule="evenodd" d="M21.6 0c-.994 0-1.8.816-1.8 1.823 0 1.006.806 1.823 1.8 1.823h.6v5.552c-9.76.92-17.4 9.235-17.4 19.359C4.8 39.295 13.396 48 24 48s19.2-8.705 19.2-19.443c0-6.46-3.111-12.185-7.9-15.72l.482-.837.325.177a1.789 1.789 0 0 0 2.438-.741 1.834 1.834 0 0 0-.732-2.469l-3.76-2.049a1.789 1.789 0 0 0-2.437.741 1.835 1.835 0 0 0 .732 2.47l.262.143-.404.702A18.893 18.893 0 0 0 25.8 9.198V3.646h.6c.994 0 1.8-.817 1.8-1.823A1.812 1.812 0 0 0 26.4 0h-4.8Zm-3.648 21.417a1.8 1.8 0 0 0-2.305 2.766l7.2 6a1.8 1.8 0 1 0 2.305-2.766l-7.2-6Z" clip-rule="evenodd"/><path fill="url(#a)" fill-opacity=".3" fill-rule="evenodd" d="M21.6 0c-.994 0-1.8.816-1.8 1.823 0 1.006.806 1.823 1.8 1.823h.6v5.552c-9.76.92-17.4 9.235-17.4 19.359C4.8 39.295 13.396 48 24 48s19.2-8.705 19.2-19.443c0-6.46-3.111-12.185-7.9-15.72l.482-.837.325.177a1.789 1.789 0 0 0 2.438-.741 1.834 1.834 0 0 0-.732-2.469l-3.76-2.049a1.789 1.789 0 0 0-2.437.741 1.835 1.835 0 0 0 .732 2.47l.262.143-.404.702A18.893 18.893 0 0 0 25.8 9.198V3.646h.6c.994 0 1.8-.817 1.8-1.823A1.812 1.812 0 0 0 26.4 0h-4.8Zm-3.648 21.417a1.8 1.8 0 0 0-2.305 2.766l7.2 6a1.8 1.8 0 1 0 2.305-2.766l-7.2-6Z" clip-rule="evenodd"/><defs><linearGradient id="a" x1="24" x2="24" y1="0" y2="48" gradientUnits="userSpaceOnUse"><stop stop-color="#fff"/><stop offset="1" stop-color="#F8C456"/></linearGradient></defs></svg>