<svg width="48" height="48" viewBox="0 0 48 48" fill="none" xmlns="http://www.w3.org/2000/svg">
<path fill-rule="evenodd" clip-rule="evenodd" d="M39.2734 39.2735C47.7087 30.8382 47.7087 17.1618 39.2734 8.72652C30.8381 0.291193 17.1617 0.291193 8.7264 8.72652C0.291071 17.1618 0.291071 30.8382 8.7264 39.2735C17.1617 47.7089 30.8381 47.7089 39.2734 39.2735ZM40.454 31.3102C39.5813 33.2755 38.3393 35.1165 36.7278 36.7279C35.136 38.3198 33.3202 39.5511 31.3819 40.422L29.5325 34.693C31.9647 33.5088 33.9469 31.5473 35.1573 29.1303L40.454 31.3102ZM40.4193 16.6124C39.5486 14.6762 38.3181 12.8624 36.7278 11.2721C35.1286 9.67284 33.3032 8.43742 31.3547 7.56585L29.576 12.5858C32.0321 13.7937 34.0253 15.7958 35.222 18.2584L40.4193 16.6124ZM16.6772 7.55154L18.6754 12.6135C16.2395 13.8269 14.2641 15.8235 13.0773 18.2749L7.58541 16.6014C8.45586 14.6693 9.68472 12.8594 11.272 11.2721C12.88 9.66406 14.7166 8.42388 16.6772 7.55154ZM7.55097 31.3217C8.42333 33.2827 9.66366 35.1196 11.272 36.7279C12.8724 38.3284 14.6993 39.5645 16.6494 40.4361L18.724 34.6681C16.3078 33.4778 14.3403 31.5187 13.1393 29.1088L7.55097 31.3217ZM32.6796 21.8868C32.7936 22.4482 32.8537 23.0305 32.8537 23.6288C32.8537 24.227 32.7936 24.8093 32.6796 25.3707C32.6197 25.666 32.5447 25.9559 32.4557 26.2394C31.6064 28.9433 29.4682 31.0815 26.7643 31.9308C25.9424 32.1889 25.0661 32.3288 24.1537 32.3288C23.2413 32.3288 22.3649 32.1889 21.5431 31.9308C18.8391 31.0815 16.7009 28.9433 15.8517 26.2394C15.5935 25.4175 15.4537 24.5412 15.4537 23.6288C15.4537 22.7163 15.5935 21.84 15.8517 21.0181C16.7009 18.3142 18.8391 16.176 21.5431 15.3267C22.3649 15.0686 23.2413 14.9288 24.1537 14.9288C25.0661 14.9288 25.9424 15.0686 26.7643 15.3267C29.4682 16.176 31.6064 18.3142 32.4557 21.0181C32.5447 21.3016 32.6197 21.5915 32.6796 21.8868Z" fill="#FFDF6F"/>
<path fill-rule="evenodd" clip-rule="evenodd" d="M39.2734 39.2735C47.7087 30.8382 47.7087 17.1618 39.2734 8.72652C30.8381 0.291193 17.1617 0.291193 8.7264 8.72652C0.291071 17.1618 0.291071 30.8382 8.7264 39.2735C17.1617 47.7089 30.8381 47.7089 39.2734 39.2735ZM40.454 31.3102C39.5813 33.2755 38.3393 35.1165 36.7278 36.7279C35.136 38.3198 33.3202 39.5511 31.3819 40.422L29.5325 34.693C31.9647 33.5088 33.9469 31.5473 35.1573 29.1303L40.454 31.3102ZM40.4193 16.6124C39.5486 14.6762 38.3181 12.8624 36.7278 11.2721C35.1286 9.67284 33.3032 8.43742 31.3547 7.56585L29.576 12.5858C32.0321 13.7937 34.0253 15.7958 35.222 18.2584L40.4193 16.6124ZM16.6772 7.55154L18.6754 12.6135C16.2395 13.8269 14.2641 15.8235 13.0773 18.2749L7.58541 16.6014C8.45586 14.6693 9.68472 12.8594 11.272 11.2721C12.88 9.66406 14.7166 8.42388 16.6772 7.55154ZM7.55097 31.3217C8.42333 33.2827 9.66366 35.1196 11.272 36.7279C12.8724 38.3284 14.6993 39.5645 16.6494 40.4361L18.724 34.6681C16.3078 33.4778 14.3403 31.5187 13.1393 29.1088L7.55097 31.3217ZM32.6796 21.8868C32.7936 22.4482 32.8537 23.0305 32.8537 23.6288C32.8537 24.227 32.7936 24.8093 32.6796 25.3707C32.6197 25.666 32.5447 25.9559 32.4557 26.2394C31.6064 28.9433 29.4682 31.0815 26.7643 31.9308C25.9424 32.1889 25.0661 32.3288 24.1537 32.3288C23.2413 32.3288 22.3649 32.1889 21.5431 31.9308C18.8391 31.0815 16.7009 28.9433 15.8517 26.2394C15.5935 25.4175 15.4537 24.5412 15.4537 23.6288C15.4537 22.7163 15.5935 21.84 15.8517 21.0181C16.7009 18.3142 18.8391 16.176 21.5431 15.3267C22.3649 15.0686 23.2413 14.9288 24.1537 14.9288C25.0661 14.9288 25.9424 15.0686 26.7643 15.3267C29.4682 16.176 31.6064 18.3142 32.4557 21.0181C32.5447 21.3016 32.6197 21.5915 32.6796 21.8868Z" fill="url(#paint0_linear_3016_898)" fill-opacity="0.3"/>
<defs>
<linearGradient id="paint0_linear_3016_898" x1="23.9999" y1="2.40002" x2="23.9999" y2="45.6" gradientUnits="userSpaceOnUse">
<stop stop-color="white"/>
<stop offset="1" stop-color="#F8C456"/>
</linearGradient>
</defs>
</svg>
