<svg width="24" height="24" fill="none" xmlns="http://www.w3.org/2000/svg"><path d="M5.77 6.97h.43-.43Zm1.61-1.61v.43-.43Zm0 16.28v-.43.43Zm-1.61-1.6h-.43.43Zm12.89 0h.43-.43Zm-1.61 1.6v.43-.43Zm1.61-14.67h-.43.43Zm-1.61-1.61v-.43.43Zm-5.27 11.57a.43.43 0 0 0 .86 0h-.86Zm.86-7.29a.43.43 0 0 0-.86 0h.86Zm2.73 5.58a.43.43 0 0 0-.6-.61l.6.61Zm-3.16 2.5-.3.3c.17.16.43.16.6 0l-.3-.3ZM9.64 14.6a.43.43 0 1 0-.6.61l.6-.61Zm12-10.21h-.43.43Zm0 2.77h.43-.43Zm-18.85 0h-.43.43Zm0-2.77h.42-.42Zm1.6-1.61v.42-.42Zm15.64 0v-.43.43Zm-15.63 6v.42-.42Zm15.63 0v-.43.43Zm-1.8-1.82v13.06h.86V6.97h-.86ZM17.05 21.2H7.38v.86h9.67v-.86ZM6.2 20.03V6.97h-.86v13.06h.86ZM7.38 5.8h9.67v-.86H7.38v.86ZM6.2 6.97c0-.66.53-1.18 1.18-1.18v-.86c-1.13 0-2.04.91-2.04 2.04h.86ZM7.38 21.2c-.65 0-1.18-.53-1.18-1.18h-.86c0 1.13.91 2.04 2.04 2.04v-.86Zm10.85-1.18c0 .65-.53 1.18-1.18 1.18v.86c1.12 0 2.04-.91 2.04-2.04h-.86Zm.86-13.06c0-1.13-.92-2.04-2.04-2.04v.86c.65 0 1.18.52 1.18 1.18h.86Zm-6.45 9.96V9.64h-.86v7.29h.86Zm2.14-2.32-2.87 2.8.6.61 2.86-2.8-.6-.61Zm-2.27 2.8-2.87-2.8-.6.61 2.87 2.8.6-.61Zm8.69-13v2.77h.86V4.4h-.86Zm-18 2.77V4.4h-.85v2.77h.85Zm1.2-3.96h15.63v-.85H4.4v.85Zm1.37 5.15H4.4v.85h1.37v-.85Zm14.26 0h-1.37v.85h1.37v-.85ZM3.21 4.4c0-.66.53-1.19 1.19-1.19v-.85c-1.13 0-2.04.91-2.04 2.04h.85Zm-.85 2.77c0 1.13.91 2.04 2.04 2.04v-.85c-.66 0-1.19-.53-1.19-1.19h-.85Zm18.85 0c0 .66-.53 1.19-1.18 1.19v.85c1.13 0 2.04-.9 2.04-2.04h-.86Zm.86-2.77c0-1.13-.91-2.04-2.04-2.04v.85c.65 0 1.18.53 1.18 1.19h.86Z" fill="#374151"/></svg>