<svg xmlns="http://www.w3.org/2000/svg" width="48" height="48" fill="none"><path fill="#FFDF6F" d="M19.613 2.4c-5.435 0-10.22 3.964-10.22 9.297s4.785 9.296 10.22 9.296c5.436 0 10.22-3.963 10.22-9.296 0-5.333-4.784-9.297-10.22-9.297Z"/><path fill="url(#a)" fill-opacity=".3" d="M19.613 2.4c-5.435 0-10.22 3.964-10.22 9.297s4.785 9.296 10.22 9.296c5.436 0 10.22-3.963 10.22-9.296 0-5.333-4.784-9.297-10.22-9.297Z"/><path fill="#FFDF6F" d="M7.302 45.6c-.556 0-.834 0-1.067-.026-2.006-.223-3.59-1.833-3.809-3.871-.026-.238-.026-.52-.026-1.086v-1.101c0-4.524 2.316-8.721 6.113-11.08a20.992 20.992 0 0 1 22.201 0c3.797 2.359 6.112 6.556 6.112 11.08v1.101c0 .565 0 .848-.025 1.086-.22 2.038-1.803 3.648-3.809 3.871-.234.026-.511.026-1.067.026H7.302Z"/><path fill="url(#b)" fill-opacity=".3" d="M7.302 45.6c-.556 0-.834 0-1.067-.026-2.006-.223-3.59-1.833-3.809-3.871-.026-.238-.026-.52-.026-1.086v-1.101c0-4.524 2.316-8.721 6.113-11.08a20.992 20.992 0 0 1 22.201 0c3.797 2.359 6.112 6.556 6.112 11.08v1.101c0 .565 0 .848-.025 1.086-.22 2.038-1.803 3.648-3.809 3.871-.234.026-.511.026-1.067.026H7.302Z"/><path fill="#FFDF6F" d="M42.438 3.432a1.776 1.776 0 0 1 2.505-.258c.763.623.879 1.75.258 2.515l-4.174 5.149c-.224.275-.49.605-.759.857-.325.305-.842.685-1.584.748-.742.063-1.315-.224-1.686-.47-.307-.204-.626-.483-.892-.718L34.04 9.441a1.793 1.793 0 0 1-.168-2.523 1.776 1.776 0 0 1 2.514-.169l1.964 1.726 4.088-5.043Z"/><path fill="url(#c)" fill-opacity=".3" d="M42.438 3.432a1.776 1.776 0 0 1 2.505-.258c.763.623.879 1.75.258 2.515l-4.174 5.149c-.224.275-.49.605-.759.857-.325.305-.842.685-1.584.748-.742.063-1.315-.224-1.686-.47-.307-.204-.626-.483-.892-.718L34.04 9.441a1.793 1.793 0 0 1-.168-2.523 1.776 1.776 0 0 1 2.514-.169l1.964 1.726 4.088-5.043Z"/><defs><linearGradient id="a" x1="24" x2="24" y1="2.4" y2="45.6" gradientUnits="userSpaceOnUse"><stop stop-color="#fff"/><stop offset="1" stop-color="#F8C456"/></linearGradient><linearGradient id="b" x1="24" x2="24" y1="2.4" y2="45.6" gradientUnits="userSpaceOnUse"><stop stop-color="#fff"/><stop offset="1" stop-color="#F8C456"/></linearGradient><linearGradient id="c" x1="24" x2="24" y1="2.4" y2="45.6" gradientUnits="userSpaceOnUse"><stop stop-color="#fff"/><stop offset="1" stop-color="#F8C456"/></linearGradient></defs></svg>