<svg width="32" height="33" viewBox="0 0 32 33" fill="none" xmlns="http://www.w3.org/2000/svg">
<path fill-rule="evenodd" clip-rule="evenodd" d="M8.21471 4.48345C6.21354 5.50148 5.3935 6.70136 5.3935 7.69477C5.3935 8.68818 6.21354 9.88805 8.21471 10.9061C10.1503 11.8907 12.901 12.532 15.9992 12.532C19.0975 12.532 21.8482 11.8907 23.7837 10.9061C25.7849 9.88805 26.6049 8.68818 26.6049 7.69477C26.6049 6.70136 25.7849 5.50148 23.7837 4.48345C21.8482 3.49879 19.0975 2.85756 15.9992 2.85756C12.901 2.85756 10.1503 3.49879 8.21471 4.48345ZM26.6049 11.7241C26.0538 12.1714 25.4286 12.5654 24.765 12.903C22.465 14.073 19.3643 14.7645 15.9992 14.7645C12.6342 14.7645 9.53345 14.073 7.23339 12.903C6.56984 12.5654 5.94463 12.1714 5.3935 11.7241L5.3935 16.625C5.3935 17.6184 6.21354 18.8183 8.21471 19.8363C10.1503 20.821 12.901 21.4622 15.9992 21.4622C19.0975 21.4622 21.8482 20.821 23.7837 19.8363C25.7849 18.8183 26.6049 17.6184 26.6049 16.625V11.7241ZM28.7992 7.69477C28.7992 5.40016 26.9995 3.62329 24.765 2.48659C22.465 1.3165 19.3643 0.625 15.9992 0.625C12.6342 0.625 9.53345 1.3165 7.23339 2.48659C4.99896 3.62329 3.19922 5.40016 3.19922 7.69477L3.19922 25.5552C3.19922 27.8498 4.99896 29.6267 7.23339 30.7634C9.53345 31.9335 12.6342 32.625 15.9992 32.625C19.3643 32.625 22.465 31.9335 24.765 30.7634C26.9995 29.6267 28.7992 27.8498 28.7992 25.5552V7.69477ZM26.6049 20.6543C26.0538 21.1016 25.4286 21.4956 24.765 21.8332C22.465 23.0033 19.3643 23.6948 15.9992 23.6948C12.6342 23.6948 9.53345 23.0033 7.23339 21.8332C6.56984 21.4956 5.94463 21.1016 5.3935 20.6543V25.5552C5.3935 26.5486 6.21354 27.7485 8.21471 28.7666C10.1503 29.7512 12.901 30.3924 15.9992 30.3924C19.0975 30.3924 21.8482 29.7512 23.7837 28.7666C25.7849 27.7485 26.6049 26.5486 26.6049 25.5552V20.6543ZM10.1478 16.625C10.1478 17.447 9.49284 18.1134 8.68493 18.1134C7.87701 18.1134 7.22207 17.447 7.22207 16.625C7.22207 15.803 7.87701 15.1366 8.68493 15.1366C9.49284 15.1366 10.1478 15.803 10.1478 16.625ZM14.5363 19.6017C15.3443 19.6017 15.9992 18.9354 15.9992 18.1134C15.9992 17.2914 15.3443 16.625 14.5363 16.625C13.7284 16.625 13.0735 17.2914 13.0735 18.1134C13.0735 18.9354 13.7284 19.6017 14.5363 19.6017ZM10.1478 25.5552C10.1478 26.3772 9.49284 27.0436 8.68493 27.0436C7.87701 27.0436 7.22207 26.3772 7.22207 25.5552C7.22207 24.7332 7.87701 24.0669 8.68493 24.0669C9.49284 24.0669 10.1478 24.7332 10.1478 25.5552ZM14.5363 28.532C15.3443 28.532 15.9992 27.8656 15.9992 27.0436C15.9992 26.2216 15.3443 25.5552 14.5363 25.5552C13.7284 25.5552 13.0735 26.2216 13.0735 27.0436C13.0735 27.8656 13.7284 28.532 14.5363 28.532Z" fill="#4B5563"/>
</svg>
