<svg xmlns="http://www.w3.org/2000/svg" width="25" height="24" fill="none"><path fill="url(#a)" fill-rule="evenodd" d="M12.33 0a12 12 0 0 0-3.79 23.39c.6.1.82-.26.82-.58l-.02-2.04c-3.33.72-4.04-1.61-4.04-1.61-.54-1.39-1.33-1.76-1.33-1.76-1.1-.74.08-.72.08-.72 1.2.08 1.84 1.23 1.84 1.23 1.07 1.84 2.8 1.3 3.5 1 .1-.78.41-1.3.75-1.6-2.66-.3-5.46-1.34-5.46-5.94 0-1.3.47-2.38 1.23-3.22-.12-.3-.53-1.52.12-3.17 0 0 1-.33 3.3 1.23a11.52 11.52 0 0 1 6 0c2.3-1.55 3.3-1.23 3.3-1.23a4.3 4.3 0 0 1 .12 3.17A4.63 4.63 0 0 1 20 11.37c0 4.61-2.8 5.63-5.48 5.93.43.36.81 1.1.81 2.22l-.01 3.29c0 .32.21.7.82.58A12 12 0 0 0 12.33 0Z" clip-rule="evenodd"/><defs><linearGradient id="a" x1=".33" x2="25.57" y1="15.86" y2="12.78" gradientUnits="userSpaceOnUse"><stop stop-color="#FFDF6F"/><stop offset=".62" stop-color="#F8C455"/><stop offset="1" stop-color="#ECA572"/></linearGradient></defs></svg>