<svg width="40" height="40" viewBox="0 0 40 40" fill="none" xmlns="http://www.w3.org/2000/svg"><path fill-rule="evenodd" clip-rule="evenodd" d="M35 29.28A6.38 6.38 0 0 1 28.65 35a3.8 3.8 0 0 1-3.8-3.8v-6.34c0-2.1 1.7-3.8 3.8-3.8a6.3 6.3 0 0 1 3.83 1.28V20a12.48 12.48 0 0 0-24.96 0v2.34a6.32 6.32 0 0 1 3.83-1.29c2.1 0 3.8 1.7 3.8 3.8v6.34a3.8 3.8 0 0 1-3.8 3.81A6.38 6.38 0 0 1 5 29.28V20a15 15 0 1 1 30 0v9.28ZM7.52 27.4a3.83 3.83 0 0 1 3.83-3.83c.7 0 1.28.58 1.28 1.29v6.34c0 .7-.57 1.28-1.28 1.28a3.83 3.83 0 0 1-3.83-3.83V27.4Zm19.85-2.54c0-.71.57-1.29 1.28-1.29a3.83 3.83 0 0 1 3.83 3.83v1.25a3.83 3.83 0 0 1-3.83 3.83c-.7 0-1.28-.58-1.28-1.28v-6.34Z" fill="#4B5563"/></svg>