<svg width="20" height="20" viewBox="0 0 20 20" fill="none" xmlns="http://www.w3.org/2000/svg">
  <path fill-rule="evenodd" clip-rule="evenodd"
    d="M10.0001 9.24908C8.48128 9.24908 7.25006 10.4803 7.25006 11.9991C7.25006 13.5179 8.48128 14.7491 10.0001 14.7491C11.5188 14.7491 12.7501 13.5179 12.7501 11.9991C12.7501 10.4803 11.5188 9.24908 10.0001 9.24908ZM8.75006 11.9991C8.75006 11.3087 9.3097 10.7491 10.0001 10.7491C10.6904 10.7491 11.2501 11.3087 11.2501 11.9991C11.2501 12.6894 10.6904 13.2491 10.0001 13.2491C9.3097 13.2491 8.75006 12.6894 8.75006 11.9991Z"
    fill="#4B5563" />
  <path fill-rule="evenodd" clip-rule="evenodd"
    d="M10.0001 2.44141C8.19588 2.44141 6.68038 3.67752 6.25428 5.34905C6.69674 5.3396 7.19882 5.3396 7.77203 5.3396H12.2281C13.1865 5.3396 13.946 5.33959 14.5606 5.38378C15.1886 5.42892 15.7227 5.523 16.2187 5.74093C17.3079 6.21955 18.1778 7.08949 18.6564 8.1787C18.8744 8.67463 18.9684 9.2088 19.0136 9.83677C19.0578 10.4513 19.0578 11.2108 19.0578 12.1691V12.2271C19.0578 13.1855 19.0578 13.9451 19.0136 14.5596C18.9684 15.1876 18.8744 15.7218 18.6564 16.2177C18.1778 17.3069 17.3079 18.1768 16.2187 18.6555C15.7227 18.8734 15.1886 18.9675 14.5606 19.0126C13.946 19.0568 13.1865 19.0568 12.2281 19.0568H7.77209C6.81367 19.0568 6.05411 19.0568 5.43955 19.0126C4.81159 18.9675 4.27741 18.8734 3.78148 18.6555C2.69227 18.1768 1.82233 17.3069 1.34371 16.2177C1.12579 15.7218 1.03171 15.1876 0.986559 14.5596C0.942375 13.9451 0.942379 13.1855 0.942383 12.2271V12.1693C0.942379 11.2109 0.942375 10.4513 0.986559 9.83677C1.03171 9.2088 1.12579 8.67463 1.34371 8.1787C1.82233 7.08949 2.69227 6.21955 3.78148 5.74093C4.07077 5.61381 4.37306 5.52883 4.6994 5.47112C5.10075 2.9048 7.32113 0.941406 10.0001 0.941406C11.1247 0.941406 12.1705 1.28822 13.0336 1.88077C13.3751 2.11521 13.4619 2.58208 13.2275 2.92357C12.993 3.26505 12.5261 3.35184 12.1847 3.1174C11.5634 2.69092 10.812 2.44141 10.0001 2.44141ZM5.54712 6.87991C4.99992 6.91926 4.65809 6.99416 4.38492 7.11419C3.63968 7.44167 3.04445 8.03689 2.71698 8.78214C2.59694 9.05531 2.52204 9.39713 2.4827 9.94434C2.44283 10.4988 2.44238 11.2045 2.44238 12.1982C2.44238 13.1919 2.44283 13.8976 2.4827 14.4521C2.52204 14.9993 2.59694 15.3411 2.71698 15.6143C3.04445 16.3595 3.63968 16.9547 4.38492 17.2822C4.65809 17.4022 4.99992 17.4771 5.54712 17.5165C6.10157 17.5563 6.80726 17.5568 7.80098 17.5568H12.1992C13.1929 17.5568 13.8986 17.5563 14.453 17.5165C15.0002 17.4771 15.3421 17.4022 15.6152 17.2822C16.3605 16.9547 16.9557 16.3595 17.2832 15.6143C17.4032 15.3411 17.4781 14.9993 17.5175 14.4521C17.5573 13.8976 17.5578 13.1919 17.5578 12.1982C17.5578 11.2045 17.5573 10.4988 17.5175 9.94434C17.4781 9.39713 17.4032 9.05531 17.2832 8.78214C16.9557 8.03689 16.3605 7.44167 15.6152 7.11419C15.3421 6.99416 15.0002 6.91926 14.453 6.87991C13.8986 6.84005 13.1929 6.8396 12.1992 6.8396H7.80098C6.80726 6.8396 6.10157 6.84005 5.54712 6.87991Z"
    fill="#4B5563" />
</svg>