<svg width="20" height="20" viewBox="0 0 20 20" fill="none" xmlns="http://www.w3.org/2000/svg"><path fill-rule="evenodd" clip-rule="evenodd" d="M14.58 1H4.48c-.4 0-.75 0-1.03.02a2.53 2.53 0 0 0-2.43 2.43C1 3.73 1 4.07 1 4.48v6.5c0 1.67 0 3 .14 4.06A4.38 4.38 0 0 0 2.3 17.7c.7.7 1.6 1 2.67 1.15 1.05.14 2.39.14 4.07.14h2.4c1.46 0 2.62 0 3.55-.1a4.44 4.44 0 0 0 2.4-.9c.23-.19.43-.4.62-.62.54-.66.78-1.45.9-2.4.1-.93.1-2.1.1-3.56v-.1c0-1.46 0-2.63-.1-3.55a4.44 4.44 0 0 0-.9-2.4 4.42 4.42 0 0 0-.62-.62 4.44 4.44 0 0 0-2.4-.9c-.93-.1-2.1-.1-3.56-.1h-8.9v-.2c.02-.21.05-.31.07-.37.11-.27.32-.48.59-.59.06-.02.16-.05.37-.06.23-.02.52-.02.95-.02h10.08a.76.76 0 0 0 0-1.51ZM2.51 10.92V5.26h8.86c1.53 0 2.6 0 3.43.1.8.1 1.27.27 1.62.56.15.12.29.26.4.4.3.35.47.82.57 1.63.1.82.1 1.9.1 3.42 0 1.53 0 2.6-.1 3.43-.1.8-.28 1.27-.56 1.62a2.9 2.9 0 0 1-.4.4c-.36.3-.82.47-1.63.57-.83.1-1.9.1-3.43.1H9.08c-1.74 0-2.98 0-3.92-.13-.9-.12-1.42-.35-1.8-.72-.37-.38-.6-.9-.72-1.8-.13-.94-.13-2.18-.13-3.92Z" fill="#4B5563"/><path d="M15 12a1 1 0 1 1-2 0 1 1 0 0 1 2 0Z" fill="#4B5563"/></svg>
