<svg width="33" height="32" fill="none" xmlns="http://www.w3.org/2000/svg"><path d="M4.332 4.93a.93.93 0 0 1 .93-.93h6.868a.93.93 0 0 1 .93.93v6.674a.93.93 0 0 1-.93.93H5.261a.93.93 0 0 1-.929-.93V4.929Z" stroke="url(#a)" stroke-width="5.333"/><path d="M19.604 4.93a.93.93 0 0 1 .93-.93h6.868a.93.93 0 0 1 .93.93v6.674a.93.93 0 0 1-.93.93h-6.869a.93.93 0 0 1-.929-.93V4.929Z" stroke="url(#b)" stroke-width="5.333"/><path d="M4.332 20.396a.93.93 0 0 1 .93-.93h6.868a.93.93 0 0 1 .93.93v6.674a.93.93 0 0 1-.93.93H5.261a.93.93 0 0 1-.929-.93v-6.674Z" stroke="url(#c)" stroke-width="5.333"/><path d="M19.604 23.733a4.267 4.267 0 0 1 4.267-4.267h.194a4.267 4.267 0 1 1 0 8.534h-.194a4.267 4.267 0 0 1-4.267-4.267Z" stroke="url(#d)" stroke-width="5.333"/><defs><linearGradient id="a" x1="-35.668" y1="-104.667" x2="28.332" y2="30" gradientUnits="userSpaceOnUse"><stop offset=".614" stop-color="#F8C455"/><stop offset=".884" stop-color="#FDD868"/><stop offset=".952" stop-color="#FFDE6E"/></linearGradient><linearGradient id="b" x1="-35.668" y1="-104.667" x2="28.332" y2="30" gradientUnits="userSpaceOnUse"><stop offset=".614" stop-color="#F8C455"/><stop offset=".884" stop-color="#FDD868"/><stop offset=".952" stop-color="#FFDE6E"/></linearGradient><linearGradient id="c" x1="-35.668" y1="-104.667" x2="28.332" y2="30" gradientUnits="userSpaceOnUse"><stop offset=".614" stop-color="#F8C455"/><stop offset=".884" stop-color="#FDD868"/><stop offset=".952" stop-color="#FFDE6E"/></linearGradient><linearGradient id="d" x1="-35.668" y1="-104.667" x2="28.332" y2="30" gradientUnits="userSpaceOnUse"><stop offset=".614" stop-color="#F8C455"/><stop offset=".884" stop-color="#FDD868"/><stop offset=".952" stop-color="#FFDE6E"/></linearGradient></defs></svg>