<svg width="32" height="33" viewBox="0 0 32 33" fill="none" xmlns="http://www.w3.org/2000/svg">
  <g clip-path="url(#clip0_4599_8692)">
    <path
      d="M7.60686 10.6545L7.6718 10.6723L7.72033 10.6256C8.59372 9.78555 9.59037 9.19717 10.7107 8.89698C11.806 8.6035 12.9172 8.61306 14.0271 8.90206L14.0955 8.91988L14.1437 8.86811C14.8527 8.10579 15.8133 7.58237 16.9663 7.27341C18.4117 6.88613 19.7815 6.93619 21.0258 7.47481C21.4517 7.6592 21.622 8.13392 21.412 8.53793C21.1989 8.94799 20.6741 9.13261 20.2424 8.94573C19.4172 8.58849 18.4805 8.53135 17.3822 8.82562C16.3457 9.10336 15.6557 9.56223 15.2169 10.1613C14.9198 10.567 14.3704 10.7399 13.8898 10.5777L13.8898 10.5777L13.8699 10.5709L13.8696 10.5708C12.8972 10.2463 11.9917 10.2174 11.1266 10.4492C10.2462 10.6851 9.4265 11.1863 8.66762 12.0058C8.34963 12.3492 7.84107 12.4739 7.40226 12.3167C7.40224 12.3167 7.40223 12.3167 7.40221 12.3167L7.36713 12.3041L7.36713 12.3041L7.36621 12.3038C6.4543 11.985 5.50202 11.9563 4.47993 12.2301C3.38781 12.5228 2.77664 13.006 2.46251 13.6139C2.25044 14.0244 1.72605 14.2102 1.29379 14.0243C0.867283 13.8408 0.695799 13.3665 0.904739 12.9621C1.50241 11.8054 2.61656 11.0658 4.06402 10.6779C5.27952 10.3523 6.46737 10.3417 7.60686 10.6545Z"
      fill="#4B5563" stroke="#4B5563" stroke-width="0.236903" />
    <path
      d="M15.0144 3.43095L14.9617 3.53705L15.0144 3.43095C13.2586 2.55926 11.2612 2.41699 8.96456 3.08069C6.65862 3.7471 5.02928 4.91051 3.9878 6.5319C2.93883 8.16498 2.42602 10.3567 2.53586 13.1838C2.55494 13.675 2.17854 14.0823 1.69871 14.0975C1.21817 14.1127 0.810024 13.7291 0.790913 13.2372C0.671639 10.1674 1.22014 7.58003 2.52285 5.55194C3.83306 3.51219 5.84579 2.13224 8.47242 1.37316C11.1084 0.611375 13.5597 0.740718 15.769 1.83761C17.9612 2.92617 19.8171 4.91856 21.3717 7.69997C21.6117 8.12961 21.4636 8.67001 21.0456 8.90803C20.6284 9.14561 20.095 8.99466 19.8552 8.56568C18.4125 5.9843 16.787 4.31106 15.0144 3.43095Z"
      fill="#4B5563" stroke="#4B5563" stroke-width="0.236903" />
    <path
      d="M16.0569 25.5259C15.5565 26.0495 16.2087 26.6472 16.6733 26.1542C16.8702 25.9452 23.5072 17.2963 24.3026 16.2813L26.0326 28.6234C26.1645 29.3792 27.0765 29.0961 26.959 28.3828L25.0262 15.4593C24.9229 14.8678 24.4158 14.732 24.0444 15.2163C24.0155 15.2489 16.3451 25.2244 16.0569 25.5259Z"
      fill="#4B5563" stroke="#4B5563" stroke-width="0.75" />
    <path
      d="M15.4844 23.6309C14.8794 22.2077 14.6279 21.3681 14.8668 19.8402C15.1056 18.3122 15.7677 16.8818 16.7781 15.711C17.7885 14.5403 19.1068 13.676 20.5833 13.2163C22.0598 12.7567 23.6356 12.7199 25.1319 13.1103C26.6283 13.5006 27.9853 14.3025 29.0491 15.4249C30.1129 16.5473 30.8409 17.9453 31.1507 19.4605C31.4604 20.9756 31.3394 22.5472 30.8013 23.9971C30.2634 25.447 29.7384 26.1926 28.5153 27.139L28.5029 27.123C29.723 26.179 30.2458 25.4365 30.7825 23.9901C31.3192 22.5438 31.4399 20.9759 31.1309 19.4645C30.822 17.953 30.0957 16.5584 29.0345 15.4387C27.9733 14.3191 26.6195 13.5192 25.1269 13.1298C23.6342 12.7404 22.0622 12.777 20.5893 13.2356C19.1163 13.6942 17.8013 14.5563 16.7934 15.7242C15.7855 16.8921 15.1249 18.3191 14.8867 19.8433C14.6484 21.3675 14.8995 22.2032 15.5029 23.623L15.4844 23.6309Z"
      fill="#4B5563" stroke="#4B5563" stroke-width="1.5" stroke-linejoin="round" />
    <path
      d="M18.2051 27.4905C18.9727 28.2899 19.8932 28.8543 20.9178 29.1176C21.9423 29.3808 23.0297 29.3424 24.0915 29.013"
      stroke="#4B5563" stroke-width="1.5" stroke-linecap="round" stroke-linejoin="round" />
  </g>
  <defs>
    <clipPath id="clip0_4599_8692">
      <rect width="32" height="32" fill="white" transform="translate(0 0.625)" />
    </clipPath>
  </defs>
</svg>